<?xml version="1.0" encoding="UTF-8" standalone="no"?>
<!DOCTYPE svg PUBLIC "-//W3C//DTD SVG 1.1//EN"
 "http://www.w3.org/Graphics/SVG/1.1/DTD/svg11.dtd">
<!-- Generated by graphviz version 2.40.1 (20161225.0304)
 -->
<!-- Title: uttryck Pages: 1 -->
<svg width="197pt" height="188pt"
 viewBox="0.00 0.00 197.00 188.00" xmlns="http://www.w3.org/2000/svg" xmlns:xlink="http://www.w3.org/1999/xlink">
<g id="graph0" class="graph" transform="scale(1 1) rotate(0) translate(4 184)">
<title>uttryck</title>
<polygon fill="#ffffff" stroke="transparent" points="-4,4 -4,-184 193,-184 193,4 -4,4"/>
<!-- expr1 -->
<g id="node1" class="node">
<title>expr1</title>
<ellipse fill="none" stroke="#000000" cx="27" cy="-162" rx="27" ry="18"/>
<text text-anchor="middle" x="27" y="-157.8" font-family="arial" font-size="14.00" fill="#000000">17</text>
</g>
<!-- operator1 -->
<g id="node4" class="node">
<title>operator1</title>
<ellipse fill="none" stroke="#000000" cx="72" cy="-90" rx="27" ry="18"/>
<text text-anchor="middle" x="72" y="-85.8" font-family="arial" font-size="14.00" fill="#000000">+</text>
</g>
<!-- expr1&#45;&gt;operator1 -->
<g id="edge1" class="edge">
<title>expr1&#45;&gt;operator1</title>
<path fill="none" stroke="#000000" d="M37.437,-145.3008C42.9235,-136.5224 49.7686,-125.5703 55.9163,-115.7339"/>
<polygon fill="#000000" stroke="#000000" points="58.9751,-117.4436 61.3071,-107.1086 53.0391,-113.7336 58.9751,-117.4436"/>
</g>
<!-- expr2 -->
<g id="node2" class="node">
<title>expr2</title>
<ellipse fill="none" stroke="#000000" cx="117" cy="-162" rx="27" ry="18"/>
<text text-anchor="middle" x="117" y="-157.8" font-family="arial" font-size="14.00" fill="#000000">3</text>
</g>
<!-- expr2&#45;&gt;operator1 -->
<g id="edge2" class="edge">
<title>expr2&#45;&gt;operator1</title>
<path fill="none" stroke="#000000" d="M106.563,-145.3008C101.0765,-136.5224 94.2314,-125.5703 88.0837,-115.7339"/>
<polygon fill="#000000" stroke="#000000" points="90.9609,-113.7336 82.6929,-107.1086 85.0249,-117.4436 90.9609,-113.7336"/>
</g>
<!-- expr3 -->
<g id="node3" class="node">
<title>expr3</title>
<ellipse fill="none" stroke="#000000" cx="162" cy="-90" rx="27" ry="18"/>
<text text-anchor="middle" x="162" y="-85.8" font-family="arial" font-size="14.00" fill="#000000">a</text>
</g>
<!-- operator2 -->
<g id="node5" class="node">
<title>operator2</title>
<ellipse fill="none" stroke="#000000" cx="117" cy="-18" rx="27" ry="18"/>
<text text-anchor="middle" x="117" y="-13.8" font-family="arial" font-size="14.00" fill="#000000">+</text>
</g>
<!-- expr3&#45;&gt;operator2 -->
<g id="edge4" class="edge">
<title>expr3&#45;&gt;operator2</title>
<path fill="none" stroke="#000000" d="M151.563,-73.3008C146.0765,-64.5224 139.2314,-53.5703 133.0837,-43.7339"/>
<polygon fill="#000000" stroke="#000000" points="135.9609,-41.7336 127.6929,-35.1086 130.0249,-45.4436 135.9609,-41.7336"/>
</g>
<!-- operator1&#45;&gt;operator2 -->
<g id="edge3" class="edge">
<title>operator1&#45;&gt;operator2</title>
<path fill="none" stroke="#000000" d="M82.437,-73.3008C87.9235,-64.5224 94.7686,-53.5703 100.9163,-43.7339"/>
<polygon fill="#000000" stroke="#000000" points="103.9751,-45.4436 106.3071,-35.1086 98.0391,-41.7336 103.9751,-45.4436"/>
</g>
</g>
</svg>
