<?xml version="1.0" encoding="UTF-8" standalone="no"?>
<!DOCTYPE svg PUBLIC "-//W3C//DTD SVG 1.1//EN"
 "http://www.w3.org/Graphics/SVG/1.1/DTD/svg11.dtd">
<!-- Generated by graphviz version 2.40.1 (20161225.0304)
 -->
<!-- Title: serverapp Pages: 1 -->
<svg width="225pt" height="122pt"
 viewBox="0.00 0.00 225.18 121.60" xmlns="http://www.w3.org/2000/svg" xmlns:xlink="http://www.w3.org/1999/xlink">
<g id="graph0" class="graph" transform="scale(1 1) rotate(0) translate(4 117.6)">
<title>serverapp</title>
<polygon fill="#ffffff" stroke="transparent" points="-4,4 -4,-117.6 221.1846,-117.6 221.1846,4 -4,4"/>
<!-- name -->
<g id="node1" class="node">
<title>name</title>
<text text-anchor="middle" x="31.6425" y="-91.4" font-family="arial" font-size="14.00" fill="#000000">&quot;Jonas&quot;</text>
</g>
<!-- namn -->
<g id="node4" class="node">
<title>namn</title>
<polygon fill="none" stroke="#000000" points="58.6425,-41.4019 8.6425,-41.4019 4.6425,-37.4019 4.6425,-.1981 54.6425,-.1981 58.6425,-4.1981 58.6425,-41.4019"/>
<polyline fill="none" stroke="#000000" points="54.6425,-37.4019 4.6425,-37.4019 "/>
<polyline fill="none" stroke="#000000" points="54.6425,-37.4019 54.6425,-.1981 "/>
<polyline fill="none" stroke="#000000" points="54.6425,-37.4019 58.6425,-41.4019 "/>
<text text-anchor="middle" x="31.6425" y="-25" font-family="arial" font-size="14.00" fill="#000000">namn</text>
<text text-anchor="middle" x="31.6425" y="-8.2" font-family="arial" font-size="14.00" fill="#000000">(text)</text>
</g>
<!-- name&#45;&gt;namn -->
<g id="edge1" class="edge">
<title>name&#45;&gt;namn</title>
<path fill="none" stroke="#000000" d="M31.6425,-77.493C31.6425,-69.8083 31.6425,-60.6272 31.6425,-51.9145"/>
<polygon fill="#000000" stroke="#000000" points="35.1426,-51.6515 31.6425,-41.6515 28.1426,-51.6515 35.1426,-51.6515"/>
</g>
<!-- age -->
<g id="node2" class="node">
<title>age</title>
<text text-anchor="middle" x="108.6425" y="-91.4" font-family="arial" font-size="14.00" fill="#000000">42</text>
</g>
<!-- ålder -->
<g id="node5" class="node">
<title>ålder</title>
<polygon fill="none" stroke="#000000" points="137.9157,-41.4019 83.3693,-41.4019 79.3693,-37.4019 79.3693,-.1981 133.9157,-.1981 137.9157,-4.1981 137.9157,-41.4019"/>
<polyline fill="none" stroke="#000000" points="133.9157,-37.4019 79.3693,-37.4019 "/>
<polyline fill="none" stroke="#000000" points="133.9157,-37.4019 133.9157,-.1981 "/>
<polyline fill="none" stroke="#000000" points="133.9157,-37.4019 137.9157,-41.4019 "/>
<text text-anchor="middle" x="108.6425" y="-25" font-family="arial" font-size="14.00" fill="#000000">ålder</text>
<text text-anchor="middle" x="108.6425" y="-8.2" font-family="arial" font-size="14.00" fill="#000000">(heltal)</text>
</g>
<!-- age&#45;&gt;ålder -->
<g id="edge2" class="edge">
<title>age&#45;&gt;ålder</title>
<path fill="none" stroke="#000000" d="M108.6425,-77.493C108.6425,-69.8083 108.6425,-60.6272 108.6425,-51.9145"/>
<polygon fill="#000000" stroke="#000000" points="112.1426,-51.6515 108.6425,-41.6515 105.1426,-51.6515 112.1426,-51.6515"/>
</g>
<!-- license -->
<g id="node3" class="node">
<title>license</title>
<text text-anchor="middle" x="186.6425" y="-91.4" font-family="arial" font-size="14.00" fill="#000000">true</text>
</g>
<!-- körkort -->
<g id="node6" class="node">
<title>körkort</title>
<polygon fill="none" stroke="#000000" points="217.2268,-41.4019 160.0582,-41.4019 156.0582,-37.4019 156.0582,-.1981 213.2268,-.1981 217.2268,-4.1981 217.2268,-41.4019"/>
<polyline fill="none" stroke="#000000" points="213.2268,-37.4019 156.0582,-37.4019 "/>
<polyline fill="none" stroke="#000000" points="213.2268,-37.4019 213.2268,-.1981 "/>
<polyline fill="none" stroke="#000000" points="213.2268,-37.4019 217.2268,-41.4019 "/>
<text text-anchor="middle" x="186.6425" y="-25" font-family="arial" font-size="14.00" fill="#000000">ålder</text>
<text text-anchor="middle" x="186.6425" y="-8.2" font-family="arial" font-size="14.00" fill="#000000">(villkor)</text>
</g>
<!-- license&#45;&gt;körkort -->
<g id="edge3" class="edge">
<title>license&#45;&gt;körkort</title>
<path fill="none" stroke="#000000" d="M186.6425,-77.493C186.6425,-69.8083 186.6425,-60.6272 186.6425,-51.9145"/>
<polygon fill="#000000" stroke="#000000" points="190.1426,-51.6515 186.6425,-41.6515 183.1426,-51.6515 190.1426,-51.6515"/>
</g>
</g>
</svg>
