<?xml version="1.0" encoding="UTF-8" standalone="no"?>
<!DOCTYPE svg PUBLIC "-//W3C//DTD SVG 1.1//EN"
 "http://www.w3.org/Graphics/SVG/1.1/DTD/svg11.dtd">
<!-- Generated by graphviz version 2.40.1 (20161225.0304)
 -->
<!-- Title: branch Pages: 1 -->
<svg width="478pt" height="102pt"
 viewBox="0.00 0.00 477.95 102.00" xmlns="http://www.w3.org/2000/svg" xmlns:xlink="http://www.w3.org/1999/xlink">
<g id="graph0" class="graph" transform="scale(1 1) rotate(0) translate(4 98)">
<title>branch</title>
<polygon fill="#ffffff" stroke="transparent" points="-4,4 -4,-98 473.9512,-98 473.9512,4 -4,4"/>
<!-- c2 -->
<g id="node1" class="node">
<title>c2</title>
<ellipse fill="none" stroke="#000000" cx="29.6634" cy="-47" rx="29.8277" ry="18"/>
<text text-anchor="middle" x="29.6634" y="-44" font-family="Times,serif" font-size="10.00" fill="#000000">3484d6f</text>
</g>
<!-- c3 -->
<g id="node2" class="node">
<title>c3</title>
<ellipse fill="none" stroke="#000000" cx="109.9781" cy="-47" rx="28.8035" ry="18"/>
<text text-anchor="middle" x="109.9781" y="-44" font-family="Times,serif" font-size="10.00" fill="#000000">0f28ecc</text>
</g>
<!-- c2&#45;&gt;c3 -->
<g id="edge1" class="edge">
<title>c2&#45;&gt;c3</title>
<path fill="none" stroke="#000000" d="M59.5696,-47C63.3132,-47 67.184,-47 71.0399,-47"/>
<polygon fill="#000000" stroke="#000000" points="71.1139,-50.5001 81.1139,-47 71.1138,-43.5001 71.1139,-50.5001"/>
</g>
<!-- c4 -->
<g id="node3" class="node">
<title>c4</title>
<ellipse fill="none" stroke="#000000" cx="190.9603" cy="-76" rx="29.1531" ry="18"/>
<text text-anchor="middle" x="190.9603" y="-73" font-family="Times,serif" font-size="10.00" fill="#000000">84f9c6d</text>
</g>
<!-- c3&#45;&gt;c4 -->
<g id="edge2" class="edge">
<title>c3&#45;&gt;c4</title>
<path fill="none" stroke="#000000" d="M135.1575,-56.0168C141.6462,-58.3404 148.7501,-60.8844 155.65,-63.3552"/>
<polygon fill="#000000" stroke="#000000" points="154.9231,-66.8125 165.5176,-66.8889 157.2831,-60.2223 154.9231,-66.8125"/>
</g>
<!-- c6 -->
<g id="node5" class="node">
<title>c6</title>
<ellipse fill="none" stroke="#000000" cx="190.9603" cy="-18" rx="30.1627" ry="18"/>
<text text-anchor="middle" x="190.9603" y="-15" font-family="Times,serif" font-size="10.00" fill="#000000">deb0935</text>
</g>
<!-- c3&#45;&gt;c6 -->
<g id="edge5" class="edge">
<title>c3&#45;&gt;c6</title>
<path fill="none" stroke="#000000" d="M135.1575,-37.9832C141.5214,-35.7042 148.4771,-33.2134 155.2517,-30.7874"/>
<polygon fill="#000000" stroke="#000000" points="156.723,-33.9782 164.9576,-27.3117 154.363,-27.388 156.723,-33.9782"/>
</g>
<!-- c5 -->
<g id="node4" class="node">
<title>c5</title>
<ellipse fill="none" stroke="#000000" cx="356.6212" cy="-76" rx="27.9677" ry="18"/>
<text text-anchor="middle" x="356.6212" y="-73" font-family="Times,serif" font-size="10.00" fill="#000000">8f8afc2</text>
</g>
<!-- c4&#45;&gt;c5 -->
<g id="edge3" class="edge">
<title>c4&#45;&gt;c5</title>
<path fill="none" stroke="#000000" d="M220.5772,-76C247.8834,-76 288.5699,-76 318.334,-76"/>
<polygon fill="#000000" stroke="#000000" points="318.3666,-79.5001 328.3666,-76 318.3665,-72.5001 318.3666,-79.5001"/>
</g>
<!-- c9 -->
<g id="node8" class="node">
<title>c9</title>
<ellipse fill="none" stroke="#000000" cx="439.6203" cy="-47" rx="30.1627" ry="18"/>
<text text-anchor="middle" x="439.6203" y="-44" font-family="Times,serif" font-size="10.00" fill="#000000">3717a71</text>
<text text-anchor="middle" x="456.6242" y="-20" font-family="Times,serif" font-size="10.00" fill="#000000">master</text>
</g>
<!-- c5&#45;&gt;c9 -->
<g id="edge4" class="edge">
<title>c5&#45;&gt;c9</title>
<path fill="none" stroke="#000000" d="M381.5237,-67.299C388.4959,-64.8629 396.2164,-62.1654 403.6914,-59.5536"/>
<polygon fill="#000000" stroke="#000000" points="405.0071,-62.8015 413.293,-56.1988 402.6981,-56.1932 405.0071,-62.8015"/>
</g>
<!-- c7 -->
<g id="node6" class="node">
<title>c7</title>
<ellipse fill="none" stroke="#000000" cx="273.6221" cy="-18" rx="30.1627" ry="18"/>
<text text-anchor="middle" x="273.6221" y="-15" font-family="Times,serif" font-size="10.00" fill="#000000">859bc5d</text>
</g>
<!-- c6&#45;&gt;c7 -->
<g id="edge6" class="edge">
<title>c6&#45;&gt;c7</title>
<path fill="none" stroke="#000000" d="M221.7405,-18C225.3381,-18 229.05,-18 232.7569,-18"/>
<polygon fill="#000000" stroke="#000000" points="233.0915,-21.5001 243.0914,-18 233.0914,-14.5001 233.0915,-21.5001"/>
</g>
<!-- c8 -->
<g id="node7" class="node">
<title>c8</title>
<ellipse fill="none" stroke="#000000" cx="356.6212" cy="-18" rx="30.8374" ry="18"/>
<text text-anchor="middle" x="356.6212" y="-15" font-family="Times,serif" font-size="10.00" fill="#000000">7671515</text>
</g>
<!-- c7&#45;&gt;c8 -->
<g id="edge7" class="edge">
<title>c7&#45;&gt;c8</title>
<path fill="none" stroke="#000000" d="M304.0566,-18C307.8417,-18 311.7593,-18 315.6704,-18"/>
<polygon fill="#000000" stroke="#000000" points="315.9126,-21.5001 325.9125,-18 315.9125,-14.5001 315.9126,-21.5001"/>
</g>
<!-- c8&#45;&gt;c9 -->
<g id="edge8" class="edge">
<title>c8&#45;&gt;c9</title>
<path fill="none" stroke="#000000" d="M383.3395,-27.3354C389.7711,-29.5826 396.7476,-32.0202 403.5281,-34.3893"/>
<polygon fill="#000000" stroke="#000000" points="402.6411,-37.7868 413.2359,-37.7813 404.9501,-31.1786 402.6411,-37.7868"/>
</g>
</g>
</svg>
