<?xml version="1.0" encoding="UTF-8" standalone="no"?>
<!DOCTYPE svg PUBLIC "-//W3C//DTD SVG 1.1//EN"
 "http://www.w3.org/Graphics/SVG/1.1/DTD/svg11.dtd">
<!-- Generated by graphviz version 2.40.1 (20161225.0304)
 -->
<!-- Title: branch Pages: 1 -->
<svg width="478pt" height="102pt"
 viewBox="0.00 0.00 477.95 102.00" xmlns="http://www.w3.org/2000/svg" xmlns:xlink="http://www.w3.org/1999/xlink">
<g id="graph0" class="graph" transform="scale(1 1) rotate(0) translate(4 98)">
<title>branch</title>
<polygon fill="#ffffff" stroke="transparent" points="-4,4 -4,-98 473.9512,-98 473.9512,4 -4,4"/>
<!-- c2 -->
<g id="node1" class="node">
<title>c2</title>
<ellipse fill="#f0f8ff" stroke="#000000" cx="29.6634" cy="-47" rx="29.8277" ry="18"/>
<text text-anchor="middle" x="29.6634" y="-44" font-family="Times,serif" font-size="10.00" fill="#000000">3484d6f</text>
</g>
<!-- c3 -->
<g id="node2" class="node">
<title>c3</title>
<ellipse fill="#f0f8ff" stroke="#000000" cx="109.9781" cy="-47" rx="28.8035" ry="18"/>
<text text-anchor="middle" x="109.9781" y="-44" font-family="Times,serif" font-size="10.00" fill="#000000">0f28ecc</text>
</g>
<!-- c2&#45;&gt;c3 -->
<g id="edge1" class="edge">
<title>c2&#45;&gt;c3</title>
<path fill="none" stroke="#000000" d="M69.6786,-47C73.5361,-47 77.3953,-47 81.1139,-47"/>
<polygon fill="#000000" stroke="#000000" points="69.5697,-43.5001 59.5696,-47 69.5696,-50.5001 69.5697,-43.5001"/>
</g>
<!-- c4 -->
<g id="node3" class="node">
<title>c4</title>
<ellipse fill="#f0f8ff" stroke="#000000" cx="190.9603" cy="-76" rx="29.1531" ry="18"/>
<text text-anchor="middle" x="190.9603" y="-73" font-family="Times,serif" font-size="10.00" fill="#000000">84f9c6d</text>
</g>
<!-- c3&#45;&gt;c4 -->
<g id="edge2" class="edge">
<title>c3&#45;&gt;c4</title>
<path fill="none" stroke="#000000" d="M145.009,-59.5447C151.9032,-62.0135 159.0125,-64.5594 165.5176,-66.8889"/>
<polygon fill="#000000" stroke="#000000" points="145.7521,-56.0932 135.1575,-56.0168 143.392,-62.6834 145.7521,-56.0932"/>
</g>
<!-- c6 -->
<g id="node5" class="node">
<title>c6</title>
<ellipse fill="#f0f8ff" stroke="#000000" cx="190.9603" cy="-18" rx="30.1627" ry="18"/>
<text text-anchor="middle" x="190.9603" y="-15" font-family="Times,serif" font-size="10.00" fill="#000000">deb0935</text>
</g>
<!-- c3&#45;&gt;c6 -->
<g id="edge5" class="edge">
<title>c3&#45;&gt;c6</title>
<path fill="none" stroke="#000000" d="M144.8148,-34.5249C151.5723,-32.105 158.5443,-29.6083 164.9576,-27.3117"/>
<polygon fill="#000000" stroke="#000000" points="143.392,-31.3166 135.1575,-37.9832 145.7521,-37.9068 143.392,-31.3166"/>
</g>
<!-- c5 -->
<g id="node4" class="node">
<title>c5</title>
<ellipse fill="#f0f8ff" stroke="#000000" cx="356.6212" cy="-76" rx="27.9677" ry="18"/>
<text text-anchor="middle" x="356.6212" y="-73" font-family="Times,serif" font-size="10.00" fill="#000000">8f8afc2</text>
</g>
<!-- c4&#45;&gt;c5 -->
<g id="edge3" class="edge">
<title>c4&#45;&gt;c5</title>
<path fill="none" stroke="#000000" d="M230.7539,-76C260.8775,-76 301.5159,-76 328.3666,-76"/>
<polygon fill="#000000" stroke="#000000" points="230.5772,-72.5001 220.5772,-76 230.5771,-79.5001 230.5772,-72.5001"/>
</g>
<!-- c9 -->
<g id="node8" class="node">
<title>c9</title>
<ellipse fill="#f0f8ff" stroke="#000000" cx="439.6203" cy="-47" rx="30.1627" ry="18"/>
<text text-anchor="middle" x="439.6203" y="-44" font-family="Times,serif" font-size="10.00" fill="#000000">3717a71</text>
<text text-anchor="middle" x="456.6242" y="-20" font-family="Times,serif" font-size="10.00" fill="#000000">master</text>
</g>
<!-- c5&#45;&gt;c9 -->
<g id="edge4" class="edge">
<title>c5&#45;&gt;c9</title>
<path fill="none" stroke="#000000" d="M391.0368,-63.9751C398.474,-61.3766 406.224,-58.6687 413.293,-56.1988"/>
<polygon fill="#000000" stroke="#000000" points="389.8095,-60.6964 381.5237,-67.299 392.1185,-67.3046 389.8095,-60.6964"/>
</g>
<!-- c7 -->
<g id="node6" class="node">
<title>c7</title>
<ellipse fill="#f0f8ff" stroke="#000000" cx="273.6221" cy="-18" rx="30.1627" ry="18"/>
<text text-anchor="middle" x="273.6221" y="-15" font-family="Times,serif" font-size="10.00" fill="#000000">859bc5d</text>
</g>
<!-- c6&#45;&gt;c7 -->
<g id="edge6" class="edge">
<title>c6&#45;&gt;c7</title>
<path fill="none" stroke="#000000" d="M231.7459,-18C235.565,-18 239.3903,-18 243.0914,-18"/>
<polygon fill="#000000" stroke="#000000" points="231.7406,-14.5001 221.7405,-18 231.7405,-21.5001 231.7406,-14.5001"/>
</g>
<!-- c8 -->
<g id="node7" class="node">
<title>c8</title>
<ellipse fill="#f0f8ff" stroke="#000000" cx="356.6212" cy="-18" rx="30.8374" ry="18"/>
<text text-anchor="middle" x="356.6212" y="-15" font-family="Times,serif" font-size="10.00" fill="#000000">7671515</text>
</g>
<!-- c7&#45;&gt;c8 -->
<g id="edge7" class="edge">
<title>c7&#45;&gt;c8</title>
<path fill="none" stroke="#000000" d="M314.2899,-18C318.2006,-18 322.1211,-18 325.9125,-18"/>
<polygon fill="#000000" stroke="#000000" points="314.0566,-14.5001 304.0566,-18 314.0566,-21.5001 314.0566,-14.5001"/>
</g>
<!-- c8&#45;&gt;c9 -->
<g id="edge8" class="edge">
<title>c8&#45;&gt;c9</title>
<path fill="none" stroke="#000000" d="M393.0661,-30.7339C399.8532,-33.1053 406.8234,-35.5407 413.2359,-37.7813"/>
<polygon fill="#000000" stroke="#000000" points="393.9343,-27.3298 383.3395,-27.3354 391.6254,-33.9381 393.9343,-27.3298"/>
</g>
</g>
</svg>
