<?xml version="1.0" encoding="UTF-8" standalone="no"?>
<!DOCTYPE svg PUBLIC "-//W3C//DTD SVG 1.1//EN"
 "http://www.w3.org/Graphics/SVG/1.1/DTD/svg11.dtd">
<!-- Generated by graphviz version 2.40.1 (20161225.0304)
 -->
<!-- Title: branch Pages: 1 -->
<svg width="471pt" height="114pt"
 viewBox="0.00 0.00 471.29 114.00" xmlns="http://www.w3.org/2000/svg" xmlns:xlink="http://www.w3.org/1999/xlink">
<g id="graph0" class="graph" transform="scale(1 1) rotate(0) translate(4 110)">
<title>branch</title>
<polygon fill="#ffffff" stroke="transparent" points="-4,4 -4,-110 467.2894,-110 467.2894,4 -4,4"/>
<!-- c2 -->
<g id="node1" class="node">
<title>c2</title>
<ellipse fill="none" stroke="#000000" cx="105.6634" cy="-59" rx="29.8277" ry="18"/>
<text text-anchor="middle" x="105.6634" y="-56" font-family="Times,serif" font-size="10.00" fill="#000000">3484d6f</text>
</g>
<!-- c3 -->
<g id="node2" class="node">
<title>c3</title>
<ellipse fill="none" stroke="#000000" cx="185.9781" cy="-59" rx="28.8035" ry="18"/>
<text text-anchor="middle" x="185.9781" y="-56" font-family="Times,serif" font-size="10.00" fill="#000000">0f28ecc</text>
</g>
<!-- c2&#45;&gt;c3 -->
<g id="edge2" class="edge">
<title>c2&#45;&gt;c3</title>
<path fill="none" stroke="#000000" d="M135.5696,-59C139.3132,-59 143.184,-59 147.0399,-59"/>
<polygon fill="#000000" stroke="#000000" points="147.1139,-62.5001 157.1139,-59 147.1138,-55.5001 147.1139,-62.5001"/>
</g>
<!-- c4 -->
<g id="node3" class="node">
<title>c4</title>
<ellipse fill="none" stroke="#000000" cx="266.9603" cy="-88" rx="29.1531" ry="18"/>
<text text-anchor="middle" x="266.9603" y="-85" font-family="Times,serif" font-size="10.00" fill="#000000">84f9c6d</text>
</g>
<!-- c3&#45;&gt;c4 -->
<g id="edge3" class="edge">
<title>c3&#45;&gt;c4</title>
<path fill="none" stroke="#000000" d="M211.1575,-68.0168C217.6462,-70.3404 224.7501,-72.8844 231.65,-75.3552"/>
<polygon fill="#000000" stroke="#000000" points="230.9231,-78.8125 241.5176,-78.8889 233.2831,-72.2223 230.9231,-78.8125"/>
</g>
<!-- c6 -->
<g id="node5" class="node">
<title>c6</title>
<ellipse fill="none" stroke="#000000" cx="266.9603" cy="-30" rx="30.1627" ry="18"/>
<text text-anchor="middle" x="266.9603" y="-27" font-family="Times,serif" font-size="10.00" fill="#000000">deb0935</text>
</g>
<!-- c3&#45;&gt;c6 -->
<g id="edge5" class="edge">
<title>c3&#45;&gt;c6</title>
<path fill="none" stroke="#000000" d="M211.1575,-49.9832C217.5214,-47.7042 224.4771,-45.2134 231.2517,-42.7874"/>
<polygon fill="#000000" stroke="#000000" points="232.723,-45.9782 240.9576,-39.3117 230.363,-39.388 232.723,-45.9782"/>
</g>
<!-- c5 -->
<g id="node4" class="node">
<title>c5</title>
<ellipse fill="none" stroke="#000000" cx="349.6221" cy="-88" rx="27.9677" ry="18"/>
<text text-anchor="middle" x="349.6221" y="-85" font-family="Times,serif" font-size="10.00" fill="#000000">8f8afc2</text>
<text text-anchor="middle" x="306.9197" y="-61" font-family="Times,serif" font-size="10.00" fill="#000000">bug&#45;fix</text>
</g>
<!-- c4&#45;&gt;c5 -->
<g id="edge4" class="edge">
<title>c4&#45;&gt;c5</title>
<path fill="none" stroke="#000000" d="M296.3365,-88C301.1859,-88 306.2754,-88 311.3051,-88"/>
<polygon fill="#000000" stroke="#000000" points="311.4491,-91.5001 321.4491,-88 311.4491,-84.5001 311.4491,-91.5001"/>
</g>
<!-- c7 -->
<g id="node6" class="node">
<title>c7</title>
<ellipse fill="none" stroke="#000000" cx="349.6221" cy="-30" rx="30.1627" ry="18"/>
<text text-anchor="middle" x="349.6221" y="-27" font-family="Times,serif" font-size="10.00" fill="#000000">859bc5d</text>
</g>
<!-- c6&#45;&gt;c7 -->
<g id="edge6" class="edge">
<title>c6&#45;&gt;c7</title>
<path fill="none" stroke="#000000" d="M297.7405,-30C301.3381,-30 305.05,-30 308.7569,-30"/>
<polygon fill="#000000" stroke="#000000" points="309.0915,-33.5001 319.0914,-30 309.0914,-26.5001 309.0915,-33.5001"/>
</g>
<!-- c8 -->
<g id="node7" class="node">
<title>c8</title>
<ellipse fill="none" stroke="#000000" cx="432.6212" cy="-30" rx="30.8374" ry="18"/>
<text text-anchor="middle" x="432.6212" y="-27" font-family="Times,serif" font-size="10.00" fill="#000000">7671515</text>
<text text-anchor="middle" x="388.626" y="-3" font-family="Times,serif" font-size="10.00" fill="#000000">master</text>
</g>
<!-- c7&#45;&gt;c8 -->
<g id="edge7" class="edge">
<title>c7&#45;&gt;c8</title>
<path fill="none" stroke="#000000" d="M380.0566,-30C383.8417,-30 387.7593,-30 391.6704,-30"/>
<polygon fill="#000000" stroke="#000000" points="391.9126,-33.5001 401.9125,-30 391.9125,-26.5001 391.9126,-33.5001"/>
</g>
<!-- c1 -->
<g id="node8" class="node">
<title>c1</title>
<ellipse fill="none" stroke="#000000" cx="27" cy="-59" rx="27" ry="18"/>
<text text-anchor="middle" x="27" y="-56" font-family="Times,serif" font-size="10.00" fill="#000000">c1</text>
</g>
<!-- c1&#45;&gt;c2 -->
<g id="edge1" class="edge">
<title>c1&#45;&gt;c2</title>
<path fill="none" stroke="#000000" d="M54.0715,-59C57.8019,-59 61.6957,-59 65.5992,-59"/>
<polygon fill="#000000" stroke="#000000" points="65.8488,-62.5001 75.8488,-59 65.8487,-55.5001 65.8488,-62.5001"/>
</g>
</g>
</svg>
