<?xml version="1.0" encoding="UTF-8" standalone="no"?>
<!DOCTYPE svg PUBLIC "-//W3C//DTD SVG 1.1//EN"
 "http://www.w3.org/Graphics/SVG/1.1/DTD/svg11.dtd">
<!-- Generated by graphviz version 2.40.1 (20161225.0304)
 -->
<!-- Title: branch Pages: 1 -->
<svg width="471pt" height="114pt"
 viewBox="0.00 0.00 471.29 114.00" xmlns="http://www.w3.org/2000/svg" xmlns:xlink="http://www.w3.org/1999/xlink">
<g id="graph0" class="graph" transform="scale(1 1) rotate(0) translate(4 110)">
<title>branch</title>
<polygon fill="#ffffff" stroke="transparent" points="-4,4 -4,-110 467.2894,-110 467.2894,4 -4,4"/>
<!-- c2 -->
<g id="node1" class="node">
<title>c2</title>
<ellipse fill="#f0f8ff" stroke="#000000" cx="29.6634" cy="-59" rx="29.8277" ry="18"/>
<text text-anchor="middle" x="29.6634" y="-56" font-family="Times,serif" font-size="10.00" fill="#000000">3484d6f</text>
</g>
<!-- c3 -->
<g id="node2" class="node">
<title>c3</title>
<ellipse fill="#f0f8ff" stroke="#000000" cx="109.9781" cy="-59" rx="28.8035" ry="18"/>
<text text-anchor="middle" x="109.9781" y="-56" font-family="Times,serif" font-size="10.00" fill="#000000">0f28ecc</text>
</g>
<!-- c2&#45;&gt;c3 -->
<g id="edge1" class="edge">
<title>c2&#45;&gt;c3</title>
<path fill="none" stroke="#000000" d="M69.6786,-59C73.5361,-59 77.3953,-59 81.1139,-59"/>
<polygon fill="#000000" stroke="#000000" points="69.5697,-55.5001 59.5696,-59 69.5696,-62.5001 69.5697,-55.5001"/>
</g>
<!-- c4 -->
<g id="node3" class="node">
<title>c4</title>
<ellipse fill="#ffe4e1" stroke="#000000" cx="190.9603" cy="-88" rx="29.1531" ry="18"/>
<text text-anchor="middle" x="190.9603" y="-85" font-family="Times,serif" font-size="10.00" fill="#000000">84f9c6d</text>
</g>
<!-- c3&#45;&gt;c4 -->
<g id="edge2" class="edge">
<title>c3&#45;&gt;c4</title>
<path fill="none" stroke="#000000" d="M145.009,-71.5447C151.9032,-74.0135 159.0125,-76.5594 165.5176,-78.8889"/>
<polygon fill="#000000" stroke="#000000" points="145.7521,-68.0932 135.1575,-68.0168 143.392,-74.6834 145.7521,-68.0932"/>
</g>
<!-- c6 -->
<g id="node5" class="node">
<title>c6</title>
<ellipse fill="#f0f8ff" stroke="#000000" cx="190.9603" cy="-30" rx="30.1627" ry="18"/>
<text text-anchor="middle" x="190.9603" y="-27" font-family="Times,serif" font-size="10.00" fill="#000000">deb0935</text>
</g>
<!-- c3&#45;&gt;c6 -->
<g id="edge5" class="edge">
<title>c3&#45;&gt;c6</title>
<path fill="none" stroke="#000000" d="M144.8148,-46.5249C151.5723,-44.105 158.5443,-41.6083 164.9576,-39.3117"/>
<polygon fill="#000000" stroke="#000000" points="143.392,-43.3166 135.1575,-49.9832 145.7521,-49.9068 143.392,-43.3166"/>
</g>
<!-- c5 -->
<g id="node4" class="node">
<title>c5</title>
<ellipse fill="#ffe4e1" stroke="#000000" cx="356.6212" cy="-88" rx="27.9677" ry="18"/>
<text text-anchor="middle" x="356.6212" y="-85" font-family="Times,serif" font-size="10.00" fill="#000000">8f8afc2</text>
<text text-anchor="middle" x="315.5833" y="-61" font-family="Times,serif" font-size="10.00" fill="#000000">bugfix</text>
</g>
<!-- c4&#45;&gt;c5 -->
<g id="edge3" class="edge">
<title>c4&#45;&gt;c5</title>
<path fill="none" stroke="#000000" d="M230.7539,-88C260.8775,-88 301.5159,-88 328.3666,-88"/>
<polygon fill="#000000" stroke="#000000" points="230.5772,-84.5001 220.5772,-88 230.5771,-91.5001 230.5772,-84.5001"/>
</g>
<!-- c9 -->
<g id="node8" class="node">
<title>c9</title>
<ellipse fill="transparent" stroke="#000000" cx="436.2894" cy="-59" rx="27" ry="18"/>
<text text-anchor="start" x="408.0364" y="-33" font-family="Times,serif" font-style="italic" font-size="10.00" fill="#000000">merge pausad</text>
</g>
<!-- c5&#45;&gt;c9 -->
<g id="edge4" class="edge">
<title>c5&#45;&gt;c9</title>
<path fill="none" stroke="#000000" d="M390.9745,-75.4951C398.179,-72.8726 405.6274,-70.1613 412.3526,-67.7132"/>
<polygon fill="#000000" stroke="#000000" points="389.5916,-72.2737 381.392,-78.9832 391.986,-78.8515 389.5916,-72.2737"/>
</g>
<!-- c7 -->
<g id="node6" class="node">
<title>c7</title>
<ellipse fill="#f0f8ff" stroke="#000000" cx="273.6221" cy="-30" rx="30.1627" ry="18"/>
<text text-anchor="middle" x="273.6221" y="-27" font-family="Times,serif" font-size="10.00" fill="#000000">859bc5d</text>
</g>
<!-- c6&#45;&gt;c7 -->
<g id="edge6" class="edge">
<title>c6&#45;&gt;c7</title>
<path fill="none" stroke="#000000" d="M231.7459,-30C235.565,-30 239.3903,-30 243.0914,-30"/>
<polygon fill="#000000" stroke="#000000" points="231.7406,-26.5001 221.7405,-30 231.7405,-33.5001 231.7406,-26.5001"/>
</g>
<!-- c8 -->
<g id="node7" class="node">
<title>c8</title>
<ellipse fill="#f0f8ff" stroke="#000000" cx="356.6212" cy="-30" rx="30.8374" ry="18"/>
<text text-anchor="middle" x="356.6212" y="-27" font-family="Times,serif" font-size="10.00" fill="#000000">7671515</text>
<text text-anchor="middle" x="312.626" y="-3" font-family="Times,serif" font-size="10.00" fill="#000000">master</text>
</g>
<!-- c7&#45;&gt;c8 -->
<g id="edge7" class="edge">
<title>c7&#45;&gt;c8</title>
<path fill="none" stroke="#000000" d="M314.2899,-30C318.2006,-30 322.1211,-30 325.9125,-30"/>
<polygon fill="#000000" stroke="#000000" points="314.0566,-26.5001 304.0566,-30 314.0566,-33.5001 314.0566,-26.5001"/>
</g>
<!-- c8&#45;&gt;c9 -->
<g id="edge8" class="edge">
<title>c8&#45;&gt;c9</title>
<path fill="none" stroke="#000000" d="M392.4778,-43.0521C399.2869,-45.5307 406.2526,-48.0663 412.5684,-50.3653"/>
<polygon fill="#000000" stroke="#000000" points="393.3016,-39.6274 382.7076,-39.4957 390.9072,-46.2052 393.3016,-39.6274"/>
</g>
</g>
</svg>
