<?xml version="1.0" encoding="UTF-8" standalone="no"?>
<!DOCTYPE svg PUBLIC "-//W3C//DTD SVG 1.1//EN"
 "http://www.w3.org/Graphics/SVG/1.1/DTD/svg11.dtd">
<!-- Generated by graphviz version 2.40.1 (20161225.0304)
 -->
<!-- Title: branch Pages: 1 -->
<svg width="560pt" height="172pt"
 viewBox="0.00 0.00 559.94 172.00" xmlns="http://www.w3.org/2000/svg" xmlns:xlink="http://www.w3.org/1999/xlink">
<g id="graph0" class="graph" transform="scale(1 1) rotate(0) translate(4 168)">
<title>branch</title>
<polygon fill="#ffffff" stroke="transparent" points="-4,4 -4,-168 555.9382,-168 555.9382,4 -4,4"/>
<!-- c2 -->
<g id="node1" class="node">
<title>c2</title>
<ellipse fill="none" stroke="#000000" cx="29.6634" cy="-117" rx="29.8277" ry="18"/>
<text text-anchor="middle" x="29.6634" y="-114" font-family="Times,serif" font-size="10.00" fill="#000000">3484d6f</text>
</g>
<!-- c3 -->
<g id="node2" class="node">
<title>c3</title>
<ellipse fill="none" stroke="#000000" cx="109.9781" cy="-117" rx="28.8035" ry="18"/>
<text text-anchor="middle" x="109.9781" y="-114" font-family="Times,serif" font-size="10.00" fill="#000000">0f28ecc</text>
</g>
<!-- c2&#45;&gt;c3 -->
<g id="edge1" class="edge">
<title>c2&#45;&gt;c3</title>
<path fill="none" stroke="#000000" d="M59.5696,-117C63.3132,-117 67.184,-117 71.0399,-117"/>
<polygon fill="#000000" stroke="#000000" points="71.1139,-120.5001 81.1139,-117 71.1138,-113.5001 71.1139,-120.5001"/>
</g>
<!-- c4 -->
<g id="node3" class="node">
<title>c4</title>
<ellipse fill="none" stroke="#000000" cx="190.9603" cy="-146" rx="29.1531" ry="18"/>
<text text-anchor="middle" x="190.9603" y="-143" font-family="Times,serif" font-size="10.00" fill="#000000">84f9c6d</text>
</g>
<!-- c3&#45;&gt;c4 -->
<g id="edge2" class="edge">
<title>c3&#45;&gt;c4</title>
<path fill="none" stroke="#000000" d="M135.1575,-126.0168C141.6462,-128.3404 148.7501,-130.8844 155.65,-133.3552"/>
<polygon fill="#000000" stroke="#000000" points="154.9231,-136.8125 165.5176,-136.8889 157.2831,-130.2223 154.9231,-136.8125"/>
</g>
<!-- c6 -->
<g id="node5" class="node">
<title>c6</title>
<ellipse fill="none" stroke="#000000" cx="190.9603" cy="-88" rx="30.1627" ry="18"/>
<text text-anchor="middle" x="190.9603" y="-85" font-family="Times,serif" font-size="10.00" fill="#000000">deb0935</text>
</g>
<!-- c3&#45;&gt;c6 -->
<g id="edge6" class="edge">
<title>c3&#45;&gt;c6</title>
<path fill="none" stroke="#000000" d="M135.1575,-107.9832C141.5214,-105.7042 148.4771,-103.2134 155.2517,-100.7874"/>
<polygon fill="#000000" stroke="#000000" points="156.723,-103.9782 164.9576,-97.3117 154.363,-97.388 156.723,-103.9782"/>
</g>
<!-- c5 -->
<g id="node4" class="node">
<title>c5</title>
<ellipse fill="none" stroke="#000000" cx="357.2959" cy="-146" rx="27.9677" ry="18"/>
<text text-anchor="middle" x="357.2959" y="-143" font-family="Times,serif" font-size="10.00" fill="#000000">8f8afc2</text>
</g>
<!-- c4&#45;&gt;c5 -->
<g id="edge3" class="edge">
<title>c4&#45;&gt;c5</title>
<path fill="none" stroke="#000000" d="M220.3149,-146C247.7629,-146 288.9151,-146 318.9482,-146"/>
<polygon fill="#000000" stroke="#000000" points="319.0669,-149.5001 329.0668,-146 319.0668,-142.5001 319.0669,-149.5001"/>
</g>
<!-- c9 -->
<g id="node8" class="node">
<title>c9</title>
<ellipse fill="none" stroke="#000000" cx="440.295" cy="-88" rx="30.1627" ry="18"/>
<text text-anchor="middle" x="440.295" y="-85" font-family="Times,serif" font-size="10.00" fill="#000000">3717a71</text>
</g>
<!-- c5&#45;&gt;c9 -->
<g id="edge4" class="edge">
<title>c5&#45;&gt;c9</title>
<path fill="none" stroke="#000000" d="M376.5462,-132.5479C387.1819,-125.1156 400.5856,-115.749 412.3548,-107.5247"/>
<polygon fill="#000000" stroke="#000000" points="414.3806,-110.379 420.5728,-101.782 410.371,-104.6411 414.3806,-110.379"/>
</g>
<!-- c7 -->
<g id="node6" class="node">
<title>c7</title>
<ellipse fill="none" stroke="#000000" cx="273.9594" cy="-88" rx="30.1627" ry="18"/>
<text text-anchor="middle" x="273.9594" y="-85" font-family="Times,serif" font-size="10.00" fill="#000000">859bc5d</text>
</g>
<!-- c6&#45;&gt;c7 -->
<g id="edge7" class="edge">
<title>c6&#45;&gt;c7</title>
<path fill="none" stroke="#000000" d="M221.3949,-88C225.3419,-88 229.433,-88 233.5105,-88"/>
<polygon fill="#000000" stroke="#000000" points="233.5286,-91.5001 243.5286,-88 233.5286,-84.5001 233.5286,-91.5001"/>
</g>
<!-- c10 -->
<g id="node9" class="node">
<title>c10</title>
<ellipse fill="none" stroke="#000000" cx="273.9594" cy="-30" rx="30.8374" ry="18"/>
<text text-anchor="middle" x="273.9594" y="-27" font-family="Times,serif" font-size="10.00" fill="#000000">1775810</text>
<text text-anchor="middle" x="216.6312" y="-3" font-family="Times,serif" font-size="10.00" fill="#000000">origin/master</text>
</g>
<!-- c6&#45;&gt;c10 -->
<g id="edge10" class="edge">
<title>c6&#45;&gt;c10</title>
<path fill="none" stroke="#000000" d="M210.63,-74.2548C221.0968,-66.9406 234.1536,-57.8164 245.6879,-49.7562"/>
<polygon fill="#000000" stroke="#000000" points="247.9513,-52.4445 254.1434,-43.8475 243.9416,-46.7067 247.9513,-52.4445"/>
</g>
<!-- c8 -->
<g id="node7" class="node">
<title>c8</title>
<ellipse fill="none" stroke="#000000" cx="357.2959" cy="-88" rx="30.8374" ry="18"/>
<text text-anchor="middle" x="357.2959" y="-85" font-family="Times,serif" font-size="10.00" fill="#000000">7671515</text>
</g>
<!-- c7&#45;&gt;c8 -->
<g id="edge8" class="edge">
<title>c7&#45;&gt;c8</title>
<path fill="none" stroke="#000000" d="M304.5177,-88C308.3181,-88 312.2516,-88 316.1786,-88"/>
<polygon fill="#000000" stroke="#000000" points="316.4625,-91.5001 326.4624,-88 316.4624,-84.5001 316.4625,-91.5001"/>
</g>
<!-- c8&#45;&gt;c9 -->
<g id="edge9" class="edge">
<title>c8&#45;&gt;c9</title>
<path fill="none" stroke="#000000" d="M388.2017,-88C391.9724,-88 395.8681,-88 399.7527,-88"/>
<polygon fill="#000000" stroke="#000000" points="399.9157,-91.5001 409.9156,-88 399.9156,-84.5001 399.9157,-91.5001"/>
</g>
<!-- c12 -->
<g id="node11" class="node">
<title>c12</title>
<ellipse fill="none" stroke="#000000" cx="522.2821" cy="-59" rx="29.8132" ry="18"/>
<text text-anchor="middle" x="522.2821" y="-56" font-family="Times,serif" font-size="10.00" fill="#000000">894aec9</text>
<text text-anchor="middle" x="538.6112" y="-32" font-family="Times,serif" font-size="10.00" fill="#000000">master</text>
</g>
<!-- c9&#45;&gt;c12 -->
<g id="edge5" class="edge">
<title>c9&#45;&gt;c12</title>
<path fill="none" stroke="#000000" d="M466.6875,-78.6646C473.1036,-76.3951 480.0686,-73.9315 486.8288,-71.5403"/>
<polygon fill="#000000" stroke="#000000" points="488.2386,-74.7542 496.4991,-68.1198 485.9043,-68.1549 488.2386,-74.7542"/>
</g>
<!-- c11 -->
<g id="node10" class="node">
<title>c11</title>
<ellipse fill="none" stroke="#000000" cx="440.295" cy="-30" rx="28.9774" ry="18"/>
<text text-anchor="middle" x="440.295" y="-27" font-family="Times,serif" font-size="10.00" fill="#000000">f57e7eb</text>
</g>
<!-- c10&#45;&gt;c11 -->
<g id="edge11" class="edge">
<title>c10&#45;&gt;c11</title>
<path fill="none" stroke="#000000" d="M304.8561,-30C331.9669,-30 371.5397,-30 400.9159,-30"/>
<polygon fill="#000000" stroke="#000000" points="401.2354,-33.5001 411.2354,-30 401.2353,-26.5001 401.2354,-33.5001"/>
</g>
<!-- c11&#45;&gt;c12 -->
<g id="edge12" class="edge">
<title>c11&#45;&gt;c12</title>
<path fill="none" stroke="#000000" d="M465.7868,-39.0168C472.5088,-41.3945 479.8829,-44.0028 487.0205,-46.5275"/>
<polygon fill="#000000" stroke="#000000" points="485.9289,-49.8538 496.5236,-49.8889 488.2632,-43.2545 485.9289,-49.8538"/>
</g>
</g>
</svg>
