<?xml version="1.0" encoding="UTF-8" standalone="no"?>
<!DOCTYPE svg PUBLIC "-//W3C//DTD SVG 1.1//EN"
 "http://www.w3.org/Graphics/SVG/1.1/DTD/svg11.dtd">
<!-- Generated by graphviz version 2.40.1 (20161225.0304)
 -->
<!-- Title: branch Pages: 1 -->
<svg width="560pt" height="172pt"
 viewBox="0.00 0.00 559.94 172.00" xmlns="http://www.w3.org/2000/svg" xmlns:xlink="http://www.w3.org/1999/xlink">
<g id="graph0" class="graph" transform="scale(1 1) rotate(0) translate(4 168)">
<title>branch</title>
<polygon fill="#ffffff" stroke="transparent" points="-4,4 -4,-168 555.9382,-168 555.9382,4 -4,4"/>
<!-- c2 -->
<g id="node1" class="node">
<title>c2</title>
<ellipse fill="none" stroke="#000000" cx="29.6634" cy="-117" rx="29.8277" ry="18"/>
<text text-anchor="middle" x="29.6634" y="-114" font-family="Times,serif" font-size="10.00" fill="#000000">3484d6f</text>
</g>
<!-- c3 -->
<g id="node2" class="node">
<title>c3</title>
<ellipse fill="none" stroke="#000000" cx="109.9781" cy="-117" rx="28.8035" ry="18"/>
<text text-anchor="middle" x="109.9781" y="-114" font-family="Times,serif" font-size="10.00" fill="#000000">0f28ecc</text>
</g>
<!-- c2&#45;&gt;c3 -->
<g id="edge1" class="edge">
<title>c2&#45;&gt;c3</title>
<path fill="none" stroke="#000000" d="M69.6786,-117C73.5361,-117 77.3953,-117 81.1139,-117"/>
<polygon fill="#000000" stroke="#000000" points="69.5697,-113.5001 59.5696,-117 69.5696,-120.5001 69.5697,-113.5001"/>
</g>
<!-- c4 -->
<g id="node3" class="node">
<title>c4</title>
<ellipse fill="none" stroke="#000000" cx="190.9603" cy="-146" rx="29.1531" ry="18"/>
<text text-anchor="middle" x="190.9603" y="-143" font-family="Times,serif" font-size="10.00" fill="#000000">84f9c6d</text>
</g>
<!-- c3&#45;&gt;c4 -->
<g id="edge2" class="edge">
<title>c3&#45;&gt;c4</title>
<path fill="none" stroke="#000000" d="M145.009,-129.5447C151.9032,-132.0135 159.0125,-134.5594 165.5176,-136.8889"/>
<polygon fill="#000000" stroke="#000000" points="145.7521,-126.0932 135.1575,-126.0168 143.392,-132.6834 145.7521,-126.0932"/>
</g>
<!-- c6 -->
<g id="node5" class="node">
<title>c6</title>
<ellipse fill="none" stroke="#000000" cx="190.9603" cy="-88" rx="30.1627" ry="18"/>
<text text-anchor="middle" x="190.9603" y="-85" font-family="Times,serif" font-size="10.00" fill="#000000">deb0935</text>
</g>
<!-- c3&#45;&gt;c6 -->
<g id="edge6" class="edge">
<title>c3&#45;&gt;c6</title>
<path fill="none" stroke="#000000" d="M144.8148,-104.5249C151.5723,-102.105 158.5443,-99.6083 164.9576,-97.3117"/>
<polygon fill="#000000" stroke="#000000" points="143.392,-101.3166 135.1575,-107.9832 145.7521,-107.9068 143.392,-101.3166"/>
</g>
<!-- c5 -->
<g id="node4" class="node">
<title>c5</title>
<ellipse fill="none" stroke="#000000" cx="357.2959" cy="-146" rx="27.9677" ry="18"/>
<text text-anchor="middle" x="357.2959" y="-143" font-family="Times,serif" font-size="10.00" fill="#000000">8f8afc2</text>
</g>
<!-- c4&#45;&gt;c5 -->
<g id="edge3" class="edge">
<title>c4&#45;&gt;c5</title>
<path fill="none" stroke="#000000" d="M230.5544,-146C260.8889,-146 302.0008,-146 329.0668,-146"/>
<polygon fill="#000000" stroke="#000000" points="230.3149,-142.5001 220.3149,-146 230.3149,-149.5001 230.3149,-142.5001"/>
</g>
<!-- c9 -->
<g id="node8" class="node">
<title>c9</title>
<ellipse fill="none" stroke="#000000" cx="440.295" cy="-88" rx="30.1627" ry="18"/>
<text text-anchor="middle" x="440.295" y="-85" font-family="Times,serif" font-size="10.00" fill="#000000">3717a71</text>
</g>
<!-- c5&#45;&gt;c9 -->
<g id="edge4" class="edge">
<title>c5&#45;&gt;c9</title>
<path fill="none" stroke="#000000" d="M385.0587,-126.5993C396.6972,-118.4662 409.9605,-109.1978 420.5728,-101.782"/>
<polygon fill="#000000" stroke="#000000" points="382.7383,-123.9508 376.5462,-132.5479 386.748,-129.6887 382.7383,-123.9508"/>
</g>
<!-- c7 -->
<g id="node6" class="node">
<title>c7</title>
<ellipse fill="none" stroke="#000000" cx="273.9594" cy="-88" rx="30.1627" ry="18"/>
<text text-anchor="middle" x="273.9594" y="-85" font-family="Times,serif" font-size="10.00" fill="#000000">859bc5d</text>
</g>
<!-- c6&#45;&gt;c7 -->
<g id="edge7" class="edge">
<title>c6&#45;&gt;c7</title>
<path fill="none" stroke="#000000" d="M231.4131,-88C235.4906,-88 239.5817,-88 243.5286,-88"/>
<polygon fill="#000000" stroke="#000000" points="231.3949,-84.5001 221.3949,-88 231.3948,-91.5001 231.3949,-84.5001"/>
</g>
<!-- c10 -->
<g id="node9" class="node">
<title>c10</title>
<ellipse fill="none" stroke="#000000" cx="273.9594" cy="-30" rx="30.8374" ry="18"/>
<text text-anchor="middle" x="273.9594" y="-27" font-family="Times,serif" font-size="10.00" fill="#000000">1775810</text>
</g>
<!-- c6&#45;&gt;c10 -->
<g id="edge10" class="edge">
<title>c6&#45;&gt;c10</title>
<path fill="none" stroke="#000000" d="M219.0708,-68.3564C230.5908,-60.3061 243.6525,-51.1786 254.1434,-43.8475"/>
<polygon fill="#000000" stroke="#000000" points="216.8221,-65.6578 210.63,-74.2548 220.8317,-71.3957 216.8221,-65.6578"/>
</g>
<!-- c8 -->
<g id="node7" class="node">
<title>c8</title>
<ellipse fill="none" stroke="#000000" cx="357.2959" cy="-88" rx="30.8374" ry="18"/>
<text text-anchor="middle" x="357.2959" y="-85" font-family="Times,serif" font-size="10.00" fill="#000000">7671515</text>
</g>
<!-- c7&#45;&gt;c8 -->
<g id="edge8" class="edge">
<title>c7&#45;&gt;c8</title>
<path fill="none" stroke="#000000" d="M314.7926,-88C318.7191,-88 322.6556,-88 326.4624,-88"/>
<polygon fill="#000000" stroke="#000000" points="314.5177,-84.5001 304.5177,-88 314.5176,-91.5001 314.5177,-84.5001"/>
</g>
<!-- c8&#45;&gt;c9 -->
<g id="edge9" class="edge">
<title>c8&#45;&gt;c9</title>
<path fill="none" stroke="#000000" d="M398.3814,-88C402.2668,-88 406.1569,-88 409.9156,-88"/>
<polygon fill="#000000" stroke="#000000" points="398.2017,-84.5001 388.2017,-88 398.2017,-91.5001 398.2017,-84.5001"/>
</g>
<!-- c12 -->
<g id="node11" class="node">
<title>c12</title>
<ellipse fill="none" stroke="#000000" cx="522.2821" cy="-59" rx="29.8132" ry="18"/>
<text text-anchor="middle" x="522.2821" y="-56" font-family="Times,serif" font-size="10.00" fill="#000000">894aec9</text>
<text text-anchor="middle" x="538.6112" y="-32" font-family="Times,serif" font-size="10.00" fill="#000000">master</text>
</g>
<!-- c9&#45;&gt;c12 -->
<g id="edge5" class="edge">
<title>c9&#45;&gt;c12</title>
<path fill="none" stroke="#000000" d="M476.3928,-75.2317C483.1653,-72.8362 490.1186,-70.3767 496.4991,-68.1198"/>
<polygon fill="#000000" stroke="#000000" points="474.948,-72.0302 466.6875,-78.6646 477.2823,-78.6295 474.948,-72.0302"/>
</g>
<!-- c11 -->
<g id="node10" class="node">
<title>c11</title>
<ellipse fill="none" stroke="#000000" cx="440.295" cy="-30" rx="28.9774" ry="18"/>
<text text-anchor="middle" x="440.295" y="-27" font-family="Times,serif" font-size="10.00" fill="#000000">f57e7eb</text>
<text text-anchor="middle" x="384.6463" y="-3" font-family="Times,serif" font-size="10.00" fill="#000000">origin/master</text>
</g>
<!-- c10&#45;&gt;c11 -->
<g id="edge11" class="edge">
<title>c10&#45;&gt;c11</title>
<path fill="none" stroke="#000000" d="M314.9742,-30C344.8492,-30 384.589,-30 411.2354,-30"/>
<polygon fill="#000000" stroke="#000000" points="314.8561,-26.5001 304.8561,-30 314.856,-33.5001 314.8561,-26.5001"/>
</g>
<!-- c11&#45;&gt;c12 -->
<g id="edge12" class="edge">
<title>c11&#45;&gt;c12</title>
<path fill="none" stroke="#000000" d="M475.2739,-42.3725C482.4051,-44.895 489.7846,-47.5052 496.5236,-49.8889"/>
<polygon fill="#000000" stroke="#000000" points="476.3816,-39.0519 465.7868,-39.0168 474.0473,-45.6512 476.3816,-39.0519"/>
</g>
</g>
</svg>
