<?xml version="1.0" encoding="UTF-8" standalone="no"?>
<!DOCTYPE svg PUBLIC "-//W3C//DTD SVG 1.1//EN"
 "http://www.w3.org/Graphics/SVG/1.1/DTD/svg11.dtd">
<!-- Generated by graphviz version 2.40.1 (20161225.0304)
 -->
<!-- Title: repo Pages: 1 -->
<svg width="420pt" height="133pt"
 viewBox="0.00 0.00 420.32 132.80" xmlns="http://www.w3.org/2000/svg" xmlns:xlink="http://www.w3.org/1999/xlink">
<g id="graph0" class="graph" transform="scale(1 1) rotate(0) translate(4 128.8)">
<title>repo</title>
<polygon fill="#ffffff" stroke="transparent" points="-4,4 -4,-128.8 416.318,-128.8 416.318,4 -4,4"/>
<!-- shared -->
<g id="node1" class="node">
<title>shared</title>
<ellipse fill="none" stroke="#000000" cx="242.1124" cy="-18" rx="34.2084" ry="18"/>
<text text-anchor="middle" x="242.1124" y="-13.8" font-family="Times,serif" font-size="14.00" fill="#000000">origin</text>
</g>
<!-- clone1 -->
<g id="node2" class="node">
<title>clone1</title>
<ellipse fill="none" stroke="#000000" cx="100.1124" cy="-90" rx="28.4127" ry="18"/>
<text text-anchor="middle" x="100.1124" y="-85.8" font-family="Times,serif" font-size="14.00" fill="#000000">klon</text>
<text text-anchor="middle" x="35.9534" y="-112.2" font-family="Times,serif" font-size="14.00" fill="#000000">Utvecklare 1</text>
</g>
<!-- clone1&#45;&gt;shared -->
<g id="edge1" class="edge">
<title>clone1&#45;&gt;shared</title>
<path fill="none" stroke="#000000" d="M131.2996,-74.1868C153.9895,-62.682 184.6953,-47.1129 208.0303,-35.2811"/>
<polygon fill="#000000" stroke="#000000" points="129.6361,-71.106 122.2999,-78.75 132.8017,-77.3493 129.6361,-71.106"/>
<polygon fill="#000000" stroke="#000000" points="209.8792,-38.2679 217.2154,-30.6238 206.7135,-32.0245 209.8792,-38.2679"/>
</g>
<!-- clone2 -->
<g id="node3" class="node">
<title>clone2</title>
<ellipse fill="none" stroke="#000000" cx="242.1124" cy="-90" rx="28.4127" ry="18"/>
<text text-anchor="middle" x="242.1124" y="-85.8" font-family="Times,serif" font-size="14.00" fill="#000000">klon</text>
<text text-anchor="middle" x="177.9534" y="-112.2" font-family="Times,serif" font-size="14.00" fill="#000000">Utvecklare 2</text>
</g>
<!-- clone2&#45;&gt;shared -->
<g id="edge2" class="edge">
<title>clone2&#45;&gt;shared</title>
<path fill="none" stroke="#000000" d="M242.1124,-61.5726C242.1124,-56.6792 242.1124,-51.5904 242.1124,-46.6901"/>
<polygon fill="#000000" stroke="#000000" points="238.6125,-61.8313 242.1124,-71.8314 245.6125,-61.8314 238.6125,-61.8313"/>
<polygon fill="#000000" stroke="#000000" points="245.6125,-46.4132 242.1124,-36.4133 238.6125,-46.4133 245.6125,-46.4132"/>
</g>
<!-- clone3 -->
<g id="node4" class="node">
<title>clone3</title>
<ellipse fill="none" stroke="#000000" cx="384.1124" cy="-90" rx="28.4127" ry="18"/>
<text text-anchor="middle" x="384.1124" y="-85.8" font-family="Times,serif" font-size="14.00" fill="#000000">klon</text>
<text text-anchor="middle" x="319.9534" y="-112.2" font-family="Times,serif" font-size="14.00" fill="#000000">Utvecklare 3</text>
</g>
<!-- clone3&#45;&gt;shared -->
<g id="edge3" class="edge">
<title>clone3&#45;&gt;shared</title>
<path fill="none" stroke="#000000" d="M352.9252,-74.1868C330.2353,-62.682 299.5295,-47.1129 276.1945,-35.2811"/>
<polygon fill="#000000" stroke="#000000" points="351.423,-77.3493 361.9249,-78.75 354.5887,-71.106 351.423,-77.3493"/>
<polygon fill="#000000" stroke="#000000" points="277.5112,-32.0245 267.0094,-30.6238 274.3456,-38.2679 277.5112,-32.0245"/>
</g>
</g>
</svg>
