<?xml version="1.0" encoding="UTF-8" standalone="no"?>
<!DOCTYPE svg PUBLIC "-//W3C//DTD SVG 1.1//EN"
 "http://www.w3.org/Graphics/SVG/1.1/DTD/svg11.dtd">
<!-- Generated by graphviz version 2.40.1 (20161225.0304)
 -->
<!-- Title: branch Pages: 1 -->
<svg width="560pt" height="160pt"
 viewBox="0.00 0.00 559.94 160.00" xmlns="http://www.w3.org/2000/svg" xmlns:xlink="http://www.w3.org/1999/xlink">
<g id="graph0" class="graph" transform="scale(1 1) rotate(0) translate(4 156)">
<title>branch</title>
<polygon fill="#ffffff" stroke="transparent" points="-4,4 -4,-156 555.9382,-156 555.9382,4 -4,4"/>
<!-- c2 -->
<g id="node1" class="node">
<title>c2</title>
<ellipse fill="#f0f8ff" stroke="#000000" cx="29.6634" cy="-105" rx="29.8277" ry="18"/>
<text text-anchor="middle" x="29.6634" y="-102" font-family="Times,serif" font-size="10.00" fill="#000000">3484d6f</text>
</g>
<!-- c3 -->
<g id="node2" class="node">
<title>c3</title>
<ellipse fill="#f0f8ff" stroke="#000000" cx="109.9781" cy="-105" rx="28.8035" ry="18"/>
<text text-anchor="middle" x="109.9781" y="-102" font-family="Times,serif" font-size="10.00" fill="#000000">0f28ecc</text>
</g>
<!-- c2&#45;&gt;c3 -->
<g id="edge1" class="edge">
<title>c2&#45;&gt;c3</title>
<path fill="none" stroke="#000000" d="M59.5696,-105C63.3132,-105 67.184,-105 71.0399,-105"/>
<polygon fill="#000000" stroke="#000000" points="71.1139,-108.5001 81.1139,-105 71.1138,-101.5001 71.1139,-108.5001"/>
</g>
<!-- c4 -->
<g id="node3" class="node">
<title>c4</title>
<ellipse fill="#f0f8ff" stroke="#000000" cx="190.9603" cy="-134" rx="29.1531" ry="18"/>
<text text-anchor="middle" x="190.9603" y="-131" font-family="Times,serif" font-size="10.00" fill="#000000">84f9c6d</text>
</g>
<!-- c3&#45;&gt;c4 -->
<g id="edge2" class="edge">
<title>c3&#45;&gt;c4</title>
<path fill="none" stroke="#000000" d="M135.1575,-114.0168C141.6462,-116.3404 148.7501,-118.8844 155.65,-121.3552"/>
<polygon fill="#000000" stroke="#000000" points="154.9231,-124.8125 165.5176,-124.8889 157.2831,-118.2223 154.9231,-124.8125"/>
</g>
<!-- c6 -->
<g id="node5" class="node">
<title>c6</title>
<ellipse fill="#f0f8ff" stroke="#000000" cx="190.9603" cy="-76" rx="30.1627" ry="18"/>
<text text-anchor="middle" x="190.9603" y="-73" font-family="Times,serif" font-size="10.00" fill="#000000">deb0935</text>
</g>
<!-- c3&#45;&gt;c6 -->
<g id="edge6" class="edge">
<title>c3&#45;&gt;c6</title>
<path fill="none" stroke="#000000" d="M135.1575,-95.9832C141.5214,-93.7042 148.4771,-91.2134 155.2517,-88.7874"/>
<polygon fill="#000000" stroke="#000000" points="156.723,-91.9782 164.9576,-85.3117 154.363,-85.388 156.723,-91.9782"/>
</g>
<!-- c5 -->
<g id="node4" class="node">
<title>c5</title>
<ellipse fill="#f0f8ff" stroke="#000000" cx="357.2959" cy="-134" rx="27.9677" ry="18"/>
<text text-anchor="middle" x="357.2959" y="-131" font-family="Times,serif" font-size="10.00" fill="#000000">8f8afc2</text>
</g>
<!-- c4&#45;&gt;c5 -->
<g id="edge3" class="edge">
<title>c4&#45;&gt;c5</title>
<path fill="none" stroke="#000000" d="M220.3149,-134C247.7629,-134 288.9151,-134 318.9482,-134"/>
<polygon fill="#000000" stroke="#000000" points="319.0669,-137.5001 329.0668,-134 319.0668,-130.5001 319.0669,-137.5001"/>
</g>
<!-- c9 -->
<g id="node8" class="node">
<title>c9</title>
<ellipse fill="#f0f8ff" stroke="#000000" cx="440.295" cy="-76" rx="30.1627" ry="18"/>
<text text-anchor="middle" x="440.295" y="-73" font-family="Times,serif" font-size="10.00" fill="#000000">3717a71</text>
</g>
<!-- c5&#45;&gt;c9 -->
<g id="edge4" class="edge">
<title>c5&#45;&gt;c9</title>
<path fill="none" stroke="#000000" d="M376.5462,-120.5479C387.1819,-113.1156 400.5856,-103.749 412.3548,-95.5247"/>
<polygon fill="#000000" stroke="#000000" points="414.3806,-98.379 420.5728,-89.782 410.371,-92.6411 414.3806,-98.379"/>
</g>
<!-- c7 -->
<g id="node6" class="node">
<title>c7</title>
<ellipse fill="#f0f8ff" stroke="#000000" cx="273.9594" cy="-76" rx="30.1627" ry="18"/>
<text text-anchor="middle" x="273.9594" y="-73" font-family="Times,serif" font-size="10.00" fill="#000000">859bc5d</text>
</g>
<!-- c6&#45;&gt;c7 -->
<g id="edge7" class="edge">
<title>c6&#45;&gt;c7</title>
<path fill="none" stroke="#000000" d="M221.3949,-76C225.3419,-76 229.433,-76 233.5105,-76"/>
<polygon fill="#000000" stroke="#000000" points="233.5286,-79.5001 243.5286,-76 233.5286,-72.5001 233.5286,-79.5001"/>
</g>
<!-- c10 -->
<g id="node9" class="node">
<title>c10</title>
<ellipse fill="#f0f8ff" stroke="#000000" cx="273.9594" cy="-18" rx="30.8374" ry="18"/>
<text text-anchor="middle" x="273.9594" y="-15" font-family="Times,serif" font-size="10.00" fill="#000000">1775810</text>
</g>
<!-- c6&#45;&gt;c10 -->
<g id="edge10" class="edge">
<title>c6&#45;&gt;c10</title>
<path fill="none" stroke="#000000" d="M210.63,-62.2548C221.0968,-54.9406 234.1536,-45.8164 245.6879,-37.7562"/>
<polygon fill="#000000" stroke="#000000" points="247.9513,-40.4445 254.1434,-31.8475 243.9416,-34.7067 247.9513,-40.4445"/>
</g>
<!-- c8 -->
<g id="node7" class="node">
<title>c8</title>
<ellipse fill="#f0f8ff" stroke="#000000" cx="357.2959" cy="-76" rx="30.8374" ry="18"/>
<text text-anchor="middle" x="357.2959" y="-73" font-family="Times,serif" font-size="10.00" fill="#000000">7671515</text>
</g>
<!-- c7&#45;&gt;c8 -->
<g id="edge8" class="edge">
<title>c7&#45;&gt;c8</title>
<path fill="none" stroke="#000000" d="M304.5177,-76C308.3181,-76 312.2516,-76 316.1786,-76"/>
<polygon fill="#000000" stroke="#000000" points="316.4625,-79.5001 326.4624,-76 316.4624,-72.5001 316.4625,-79.5001"/>
</g>
<!-- c8&#45;&gt;c9 -->
<g id="edge9" class="edge">
<title>c8&#45;&gt;c9</title>
<path fill="none" stroke="#000000" d="M388.2017,-76C391.9724,-76 395.8681,-76 399.7527,-76"/>
<polygon fill="#000000" stroke="#000000" points="399.9157,-79.5001 409.9156,-76 399.9156,-72.5001 399.9157,-79.5001"/>
</g>
<!-- c12 -->
<g id="node11" class="node">
<title>c12</title>
<ellipse fill="#f0f8ff" stroke="#000000" cx="522.2821" cy="-47" rx="29.8132" ry="18"/>
<text text-anchor="middle" x="522.2821" y="-44" font-family="Times,serif" font-size="10.00" fill="#000000">894aec9</text>
<text text-anchor="middle" x="525.2782" y="-20" font-family="Times,serif" font-size="10.00" fill="#000000">origin/master</text>
<text text-anchor="middle" x="525.2782" y="-8" font-family="Times,serif" font-size="10.00" fill="#000000">master</text>
</g>
<!-- c9&#45;&gt;c12 -->
<g id="edge5" class="edge">
<title>c9&#45;&gt;c12</title>
<path fill="none" stroke="#000000" d="M466.6875,-66.6646C473.1036,-64.3951 480.0686,-61.9315 486.8288,-59.5403"/>
<polygon fill="#000000" stroke="#000000" points="488.2386,-62.7542 496.4991,-56.1198 485.9043,-56.1549 488.2386,-62.7542"/>
</g>
<!-- c11 -->
<g id="node10" class="node">
<title>c11</title>
<ellipse fill="#f0f8ff" stroke="#000000" cx="440.295" cy="-18" rx="28.9774" ry="18"/>
<text text-anchor="middle" x="440.295" y="-15" font-family="Times,serif" font-size="10.00" fill="#000000">f57e7eb</text>
</g>
<!-- c10&#45;&gt;c11 -->
<g id="edge11" class="edge">
<title>c10&#45;&gt;c11</title>
<path fill="none" stroke="#000000" d="M304.8561,-18C331.9669,-18 371.5397,-18 400.9159,-18"/>
<polygon fill="#000000" stroke="#000000" points="401.2354,-21.5001 411.2354,-18 401.2353,-14.5001 401.2354,-21.5001"/>
</g>
<!-- c11&#45;&gt;c12 -->
<g id="edge12" class="edge">
<title>c11&#45;&gt;c12</title>
<path fill="none" stroke="#000000" d="M465.7868,-27.0168C472.5088,-29.3945 479.8829,-32.0028 487.0205,-34.5275"/>
<polygon fill="#000000" stroke="#000000" points="485.9289,-37.8538 496.5236,-37.8889 488.2632,-31.2545 485.9289,-37.8538"/>
</g>
</g>
</svg>
