<?xml version="1.0" encoding="UTF-8" standalone="no"?>
<!DOCTYPE svg PUBLIC "-//W3C//DTD SVG 1.1//EN"
 "http://www.w3.org/Graphics/SVG/1.1/DTD/svg11.dtd">
<!-- Generated by graphviz version 2.40.1 (20161225.0304)
 -->
<!-- Title: file_status Pages: 1 -->
<svg width="292pt" height="236pt"
 viewBox="0.00 0.00 292.35 236.00" xmlns="http://www.w3.org/2000/svg" xmlns:xlink="http://www.w3.org/1999/xlink">
<g id="graph0" class="graph" transform="scale(1 1) rotate(0) translate(4 232)">
<title>file_status</title>
<polygon fill="#ffffff" stroke="transparent" points="-4,4 -4,-232 288.3463,-232 288.3463,4 -4,4"/>
<!-- untracked -->
<g id="node1" class="node">
<title>untracked</title>
<ellipse fill="#ffe4e1" stroke="#000000" cx="170.9303" cy="-210" rx="36" ry="18"/>
<text text-anchor="middle" x="170.9303" y="-207" font-family="Times,serif" font-size="10.00" fill="#000000">untracked</text>
</g>
<!-- staged -->
<g id="node2" class="node">
<title>staged</title>
<ellipse fill="#98fb98" stroke="#000000" cx="120.9303" cy="-146" rx="36" ry="18"/>
<text text-anchor="middle" x="120.9303" y="-143" font-family="Times,serif" font-size="10.00" fill="#000000">staged</text>
</g>
<!-- untracked&#45;&gt;staged -->
<g id="edge1" class="edge">
<title>untracked&#45;&gt;staged</title>
<path fill="none" stroke="#000000" d="M149.9954,-194.9586C146.1605,-191.6235 142.4044,-187.9085 139.3293,-184 136.6779,-180.63 134.2775,-176.8159 132.1518,-172.9366"/>
<polygon fill="#000000" stroke="#000000" points="135.2742,-171.3548 127.7016,-163.9449 129.0005,-174.4598 135.2742,-171.3548"/>
<text text-anchor="middle" x="167.2308" y="-175" font-family="Times,serif" font-size="10.00" fill="#000000">git add &lt;file&gt;</text>
</g>
<!-- unmodified -->
<g id="node3" class="node">
<title>unmodified</title>
<ellipse fill="#f0f8ff" stroke="#000000" cx="214.9303" cy="-82" rx="36" ry="18"/>
<text text-anchor="middle" x="214.9303" y="-79" font-family="Times,serif" font-size="10.00" fill="#000000">unmodified</text>
</g>
<!-- staged&#45;&gt;unmodified -->
<g id="edge3" class="edge">
<title>staged&#45;&gt;unmodified</title>
<path fill="none" stroke="#000000" d="M131.5633,-128.4184C136.5459,-121.3281 143.0006,-113.5339 150.3173,-108 157.3181,-102.705 165.5442,-98.3222 173.7376,-94.7602"/>
<polygon fill="#000000" stroke="#000000" points="175.28,-97.913 183.2656,-90.9502 172.6809,-91.4134 175.28,-97.913"/>
<text text-anchor="middle" x="172.7368" y="-111" font-family="Times,serif" font-size="10.00" fill="#000000">git commit</text>
</g>
<!-- modified -->
<g id="node4" class="node">
<title>modified</title>
<ellipse fill="#ffe4e1" stroke="#000000" cx="122.9303" cy="-18" rx="36" ry="18"/>
<text text-anchor="middle" x="122.9303" y="-15" font-family="Times,serif" font-size="10.00" fill="#000000">modified</text>
</g>
<!-- staged&#45;&gt;modified -->
<g id="edge4" class="edge">
<title>staged&#45;&gt;modified</title>
<path fill="none" stroke="#000000" d="M85.743,-142.1948C59.1232,-137.2638 24.2583,-125.95 6.7353,-100 -2.2187,-86.74 -2.2583,-77.2331 6.7353,-64 22.5615,-40.7133 52.2015,-29.215 77.5832,-23.5376"/>
<polygon fill="#000000" stroke="#000000" points="78.3037,-26.9629 87.4235,-21.5704 76.9314,-20.0987 78.3037,-26.9629"/>
<text text-anchor="middle" x="41.0278" y="-79" font-family="Times,serif" font-size="10.00" fill="#000000">git reset &#45;&#45; &lt;file&gt;</text>
</g>
<!-- unmodified&#45;&gt;untracked -->
<g id="edge6" class="edge">
<title>unmodified&#45;&gt;untracked</title>
<path fill="none" stroke="#000000" d="M214.3277,-100.288C212.974,-121.4851 208.6473,-156.9642 194.9303,-184 194.6523,-184.5478 194.3595,-185.0925 194.0533,-185.6335"/>
<polygon fill="#000000" stroke="#000000" points="191.0728,-183.7871 188.1785,-193.979 196.7968,-187.8166 191.0728,-183.7871"/>
<text text-anchor="middle" x="237.5653" y="-143" font-family="Times,serif" font-size="10.00" fill="#000000">git rm &lt;file&gt;</text>
</g>
<!-- unmodified&#45;&gt;modified -->
<g id="edge2" class="edge">
<title>unmodified&#45;&gt;modified</title>
<path fill="none" stroke="#000000" d="M184.9979,-71.9601C167.4919,-65.9029 148.1824,-58.8271 144.8363,-56 141.0372,-52.7902 137.7508,-48.7448 134.9627,-44.4991"/>
<polygon fill="#000000" stroke="#000000" points="137.9373,-42.6501 129.9351,-35.7064 131.8606,-46.1248 137.9373,-42.6501"/>
<text text-anchor="middle" x="165.4773" y="-47" font-family="Times,serif" font-size="10.00" fill="#000000">redigering</text>
</g>
<!-- modified&#45;&gt;staged -->
<g id="edge7" class="edge">
<title>modified&#45;&gt;staged</title>
<path fill="none" stroke="#000000" d="M118.227,-36.2192C116.2928,-44.615 114.2844,-54.7488 113.3293,-64 111.6861,-79.9154 112.0207,-84.0536 113.3293,-100 113.801,-105.7479 114.5989,-111.8596 115.5049,-117.6873"/>
<polygon fill="#000000" stroke="#000000" points="112.085,-118.4551 117.2054,-127.7305 118.9868,-117.2865 112.085,-118.4551"/>
<text text-anchor="middle" x="141.2308" y="-79" font-family="Times,serif" font-size="10.00" fill="#000000">git add &lt;file&gt;</text>
</g>
<!-- modified&#45;&gt;unmodified -->
<g id="edge5" class="edge">
<title>modified&#45;&gt;unmodified</title>
<path fill="none" stroke="#000000" d="M154.388,-26.8759C165.3882,-30.9502 177.3673,-36.5655 186.9303,-44 191.3781,-47.4579 195.4564,-51.7992 199.0428,-56.2999"/>
<polygon fill="#000000" stroke="#000000" points="196.2311,-58.3845 204.9408,-64.4172 201.8941,-54.2698 196.2311,-58.3845"/>
<text text-anchor="middle" x="241.6383" y="-47" font-family="Times,serif" font-size="10.00" fill="#000000">git checkout &#45;&#45; &lt;file&gt;</text>
</g>
</g>
</svg>
