<?xml version="1.0" encoding="UTF-8" standalone="no"?>
<!DOCTYPE svg PUBLIC "-//W3C//DTD SVG 1.1//EN"
 "http://www.w3.org/Graphics/SVG/1.1/DTD/svg11.dtd">
<!-- Generated by graphviz version 2.40.1 (20161225.0304)
 -->
<!-- Title: history Pages: 1 -->
<svg width="592pt" height="61pt"
 viewBox="0.00 0.00 591.71 60.80" xmlns="http://www.w3.org/2000/svg" xmlns:xlink="http://www.w3.org/1999/xlink">
<g id="graph0" class="graph" transform="scale(1 1) rotate(0) translate(4 56.8)">
<title>history</title>
<polygon fill="#ffffff" stroke="transparent" points="-4,4 -4,-56.8 587.7146,-56.8 587.7146,4 -4,4"/>
<!-- commit1 -->
<g id="node1" class="node">
<title>commit1</title>
<ellipse fill="none" stroke="#000000" cx="115.7146" cy="-34.8" rx="36" ry="18"/>
<text text-anchor="middle" x="115.7146" y="-30.6" font-family="Times,serif" font-size="14.00" fill="#000000">6b6be8a</text>
<text text-anchor="middle" x="39.8573" y="-4.2" font-family="Times,serif" font-size="14.00" fill="#000000">Initial commit</text>
</g>
<!-- commit2 -->
<g id="node2" class="node">
<title>commit2</title>
<ellipse fill="none" stroke="#000000" cx="223.7146" cy="-34.8" rx="36" ry="18"/>
<text text-anchor="middle" x="223.7146" y="-30.6" font-family="Times,serif" font-size="14.00" fill="#000000">0428486</text>
</g>
<!-- commit1&#45;&gt;commit2 -->
<g id="edge1" class="edge">
<title>commit1&#45;&gt;commit2</title>
<path fill="none" stroke="#000000" d="M162.1018,-34.8C170.552,-34.8 179.256,-34.8 187.3636,-34.8"/>
<polygon fill="#000000" stroke="#000000" points="161.9775,-31.3001 151.9775,-34.8 161.9774,-38.3001 161.9775,-31.3001"/>
</g>
<!-- commit3 -->
<g id="node3" class="node">
<title>commit3</title>
<ellipse fill="none" stroke="#000000" stroke-dasharray="5,2" cx="331.7146" cy="-34.8" rx="36" ry="18"/>
</g>
<!-- commit2&#45;&gt;commit3 -->
<g id="edge2" class="edge">
<title>commit2&#45;&gt;commit3</title>
<path fill="none" stroke="#000000" d="M270.1018,-34.8C278.552,-34.8 287.256,-34.8 295.3636,-34.8"/>
<polygon fill="#000000" stroke="#000000" points="269.9775,-31.3001 259.9775,-34.8 269.9774,-38.3001 269.9775,-31.3001"/>
</g>
<!-- commit4 -->
<g id="node4" class="node">
<title>commit4</title>
<ellipse fill="none" stroke="#000000" cx="439.7146" cy="-34.8" rx="36" ry="18"/>
<text text-anchor="middle" x="439.7146" y="-30.6" font-family="Times,serif" font-size="14.00" fill="#000000">d7e9249</text>
</g>
<!-- commit3&#45;&gt;commit4 -->
<g id="edge3" class="edge">
<title>commit3&#45;&gt;commit4</title>
<path fill="none" stroke="#000000" d="M378.1018,-34.8C386.552,-34.8 395.256,-34.8 403.3636,-34.8"/>
<polygon fill="#000000" stroke="#000000" points="377.9775,-31.3001 367.9775,-34.8 377.9774,-38.3001 377.9775,-31.3001"/>
</g>
<!-- commit5 -->
<g id="node5" class="node">
<title>commit5</title>
<ellipse fill="none" stroke="#000000" cx="547.7146" cy="-34.8" rx="36" ry="18"/>
<text text-anchor="middle" x="547.7146" y="-30.6" font-family="Times,serif" font-size="14.00" fill="#000000">3d3adc5</text>
<text text-anchor="middle" x="565.0568" y="-4.2" font-family="Times,serif" font-size="14.00" fill="#000000">master</text>
</g>
<!-- commit4&#45;&gt;commit5 -->
<g id="edge4" class="edge">
<title>commit4&#45;&gt;commit5</title>
<path fill="none" stroke="#000000" d="M486.1018,-34.8C494.552,-34.8 503.256,-34.8 511.3636,-34.8"/>
<polygon fill="#000000" stroke="#000000" points="485.9775,-31.3001 475.9775,-34.8 485.9774,-38.3001 485.9775,-31.3001"/>
</g>
</g>
</svg>
