<?xml version="1.0" encoding="UTF-8" standalone="no"?><svg xmlns="http://www.w3.org/2000/svg" xmlns:xlink="http://www.w3.org/1999/xlink" contentScriptType="application/ecmascript" contentStyleType="text/css" height="194px" preserveAspectRatio="none" style="width:472px;height:194px;" version="1.1" viewBox="0 0 472 194" width="472px" zoomAndPan="magnify"><defs><filter height="300%" id="f10fwxui5k2gr9" width="300%" x="-1" y="-1"><feGaussianBlur result="blurOut" stdDeviation="2.0"/><feColorMatrix in="blurOut" result="blurOut2" type="matrix" values="0 0 0 0 0 0 0 0 0 0 0 0 0 0 0 0 0 0 .4 0"/><feOffset dx="4.0" dy="4.0" in="blurOut2" result="blurOut3"/><feBlend in="SourceGraphic" in2="blurOut3" mode="normal"/></filter></defs><g><!--MD5=[0a23fe4d889dfa79a5b3efbc10542ce3]
cluster heap--><path d="M72.2108,76.9633 C78.5913,67.6978 86.2387,68.2717 92.1345,77.4858 C97.2264,68.423 103.6622,68.5653 110.301,75.757 C117.4305,67.0952 123.9585,67.4169 129.2964,77.5662 C134.2869,67.2632 140.9338,66.026 149.2914,73.8527 C157.3022,66.1581 163.3747,66.1974 169.1195,76.3677 C172.9298,68.635 180.1773,66.5749 185.7763,74.4599 C191.641,64.1183 197.8586,63.2741 205.6255,72.5337 C211.6111,63.3621 221.0562,61.8761 226.5655,73.0245 C232.1089,64.485 239.7638,66.2949 244.2756,74.1395 C250.8993,66.5166 258.1343,66.8027 262.5718,76.4549 C267.4104,65.9438 277.5674,65.3378 283.8977,74.8675 C290.0349,68.3717 297.2549,68.9634 300.2169,78.1679 C305.9212,68.4806 312.609,69.0904 319.7223,76.5665 C325.4364,67.5304 335.4306,66.8392 339.7712,77.9344 C350.2425,83.5731 350.8826,91.8813 341.5649,99.1899 C352.2283,104.4543 352.6101,112.2107 342.5107,118.4924 C351.1486,125.8974 351.6638,132.2973 341.5362,138.8019 C351.2134,144.8409 350.3511,152.705 340.7939,158.0003 C336.1721,168.4086 328.3406,168.4915 321.3124,160.5559 C317.7782,170.5624 308.7072,170.1321 303.3421,162.4119 C298.1368,172.7588 287.4806,173.3504 281.7611,162.9466 C278.0945,172.0089 272.0376,173.1359 265.1293,166.3482 C260.0874,175.2061 252.5802,177.3253 245.689,168.366 C239.5189,179.0453 231.957,182.1245 223.3742,170.8144 C219.4959,181.4467 211.3334,181.4269 205.0176,173.185 C197.251,182.686 190.8577,180.9121 185.8472,170.528 C179.3262,177.4114 171.2999,176.7855 167.2792,167.633 C160.8079,175.7749 152.3732,176.9278 146.6251,166.8148 C139.6059,173.6493 133.6529,173.9095 129.3887,163.9818 C122.1698,173.3505 113.6418,172.7027 109.3679,161.1621 C103.383,171.0473 96.0702,169.6737 89.8808,161.3813 C82.9394,167.6109 76.578,165.7877 72.768,157.6514 C62.5796,152.7044 61.9758,146.6631 68.8472,138.2658 C57.5731,132.8522 58.0386,126.6633 66.4293,118.8064 C58.4487,111.0174 57.4008,101.1737 69.9702,96.6721 C60.7778,88.8452 62.871,82.6834 72.2108,76.9633 " fill="#FFFFFF" filter="url(#f10fwxui5k2gr9)" style="stroke: #000000; stroke-width: 1.5;"/><text fill="#000000" font-family="sans-serif" font-size="14" font-weight="bold" lengthAdjust="spacingAndGlyphs" textLength="39" x="184.5" y="93.9951">heap</text><!--MD5=[959d8e9802fbb9cf7a997c608ece5901]
entity aval--><polygon fill="#FEFECE" filter="url(#f10fwxui5k2gr9)" points="221,113,231,103,330,103,330,139.2969,320,149.2969,221,149.2969,221,113" style="stroke: #000000; stroke-width: 1.5;"/><line style="stroke: #000000; stroke-width: 1.5;" x1="320" x2="330" y1="113" y2="103"/><line style="stroke: #000000; stroke-width: 1.5;" x1="221" x2="320" y1="113" y2="113"/><line style="stroke: #000000; stroke-width: 1.5;" x1="320" x2="320" y1="113" y2="149.2969"/><text fill="#000000" font-family="sans-serif" font-size="14" lengthAdjust="spacingAndGlyphs" textLength="69" x="236" y="135.9951">{ 1, 7, 3 }</text><!--MD5=[57afbd9a3a968bc955952fab4c9d8da6]
entity bval--><polygon fill="#FEFECE" filter="url(#f10fwxui5k2gr9)" points="77.5,113,87.5,103,185.5,103,185.5,139.2969,175.5,149.2969,77.5,149.2969,77.5,113" style="stroke: #000000; stroke-width: 1.5;"/><line style="stroke: #000000; stroke-width: 1.5;" x1="175.5" x2="185.5" y1="113" y2="103"/><line style="stroke: #000000; stroke-width: 1.5;" x1="77.5" x2="175.5" y1="113" y2="113"/><line style="stroke: #000000; stroke-width: 1.5;" x1="175.5" x2="175.5" y1="113" y2="149.2969"/><text fill="#000000" font-family="sans-serif" font-size="14" lengthAdjust="spacingAndGlyphs" textLength="68" x="92.5" y="135.9951">{ 4, 5, 6 }</text><!--MD5=[fa488513c37dc7061475119d600d2253]
entity aref--><polygon fill="#FEFECE" filter="url(#f10fwxui5k2gr9)" points="100.5,16,110.5,6,210.5,6,210.5,42.2969,200.5,52.2969,100.5,52.2969,100.5,16" style="stroke: #000000; stroke-width: 1.5;"/><line style="stroke: #000000; stroke-width: 1.5;" x1="200.5" x2="210.5" y1="16" y2="6"/><line style="stroke: #000000; stroke-width: 1.5;" x1="100.5" x2="200.5" y1="16" y2="16"/><line style="stroke: #000000; stroke-width: 1.5;" x1="200.5" x2="200.5" y1="16" y2="52.2969"/><text fill="#000000" font-family="sans-serif" font-size="14" lengthAdjust="spacingAndGlyphs" textLength="5" x="115.5" y="38.9951">(</text><text fill="#000000" font-family="sans-serif" font-size="14" font-style="italic" lengthAdjust="spacingAndGlyphs" textLength="60" x="120.5" y="38.9951">referens</text><text fill="#000000" font-family="sans-serif" font-size="14" lengthAdjust="spacingAndGlyphs" textLength="5" x="180.5" y="38.9951">)</text><path d="M6,16.5 L6,41.6328 A0,0 0 0 0 6,41.6328 L65,41.6328 A0,0 0 0 0 65,41.6328 L65,34.5 L100.3706,29 L65,26.5 L65,26.5 L55,16.5 L6,16.5 A0,0 0 0 0 6,16.5 " fill="#FBFB77" filter="url(#f10fwxui5k2gr9)" style="stroke: #A80036; stroke-width: 1.0;"/><path d="M55,16.5 L55,26.5 L65,26.5 L55,16.5 " fill="#FBFB77" style="stroke: #A80036; stroke-width: 1.0;"/><text fill="#000000" font-family="sans-serif" font-size="13" lengthAdjust="spacingAndGlyphs" textLength="26" x="12" y="33.5669">int[]</text><text fill="#000000" font-family="sans-serif" font-size="13" font-style="italic" lengthAdjust="spacingAndGlyphs" textLength="8" x="42" y="33.5669">a</text><!--MD5=[34453e2c0c288112de6a33ec6161f20b]
entity bref--><polygon fill="#FEFECE" filter="url(#f10fwxui5k2gr9)" points="340.5,16,350.5,6,450.5,6,450.5,42.2969,440.5,52.2969,340.5,52.2969,340.5,16" style="stroke: #000000; stroke-width: 1.5;"/><line style="stroke: #000000; stroke-width: 1.5;" x1="440.5" x2="450.5" y1="16" y2="6"/><line style="stroke: #000000; stroke-width: 1.5;" x1="340.5" x2="440.5" y1="16" y2="16"/><line style="stroke: #000000; stroke-width: 1.5;" x1="440.5" x2="440.5" y1="16" y2="52.2969"/><text fill="#000000" font-family="sans-serif" font-size="14" lengthAdjust="spacingAndGlyphs" textLength="5" x="355.5" y="38.9951">(</text><text fill="#000000" font-family="sans-serif" font-size="14" font-style="italic" lengthAdjust="spacingAndGlyphs" textLength="60" x="360.5" y="38.9951">referens</text><text fill="#000000" font-family="sans-serif" font-size="14" lengthAdjust="spacingAndGlyphs" textLength="5" x="420.5" y="38.9951">)</text><path d="M246,16.5 L246,41.6328 A0,0 0 0 0 246,41.6328 L305,41.6328 A0,0 0 0 0 305,41.6328 L305,34.5 L340.371,29 L305,26.5 L305,26.5 L295,16.5 L246,16.5 A0,0 0 0 0 246,16.5 " fill="#FBFB77" filter="url(#f10fwxui5k2gr9)" style="stroke: #A80036; stroke-width: 1.0;"/><path d="M295,16.5 L295,26.5 L305,26.5 L295,16.5 " fill="#FBFB77" style="stroke: #A80036; stroke-width: 1.0;"/><text fill="#000000" font-family="sans-serif" font-size="13" lengthAdjust="spacingAndGlyphs" textLength="26" x="252" y="33.5669">int[]</text><text fill="#000000" font-family="sans-serif" font-size="13" font-style="italic" lengthAdjust="spacingAndGlyphs" textLength="8" x="282" y="33.5669">b</text><!--MD5=[4c6e83c9a98820bf20fc05f63c57f0e2]
link aref to aval--><path d="M192.378,52.116 C196.198,54.682 199.97,57.336 203.5,60 C219.473,72.054 236.13,86.9225 249.395,99.3954 " fill="none" id="aref-to-aval" style="stroke: #A80036; stroke-width: 1.0;"/><polygon fill="#A80036" points="253.043,102.8456,249.2527,93.7553,249.4103,99.4099,243.7557,99.5675,253.043,102.8456" style="stroke: #A80036; stroke-width: 1.0;"/><!--MD5=[122698aee8af0e4991e48c6e19eef73a]
link bref to aval--><path d="M367.668,52.034 C349.774,66.2 326.459,84.6572 307.757,99.4634 " fill="none" id="bref-to-aval" style="stroke: #A80036; stroke-width: 1.0;"/><polygon fill="#A80036" points="303.597,102.7567,313.1365,100.3076,307.5176,99.6536,308.1716,94.0347,303.597,102.7567" style="stroke: #A80036; stroke-width: 1.0;"/><!--MD5=[b159eb8f7f36f5b16970c0c8753280ca]
@startuml
skinparam ranksep 1
node "(<i>referens</i>)"  as aref
note left of aref : int[] <i>a</i>

node "(<i>referens</i>)"  as bref
note left of bref : int[] <i>b</i>

cloud "heap" {
    node "{ 1, 7, 3 }" as aval
    node "{ 4, 5, 6 }" as bval
}

aref - -> aval
bref - -> aval
@enduml

PlantUML version 1.2020.17beta5(Unknown compile time)
(GPL source distribution)
Java Runtime: Java(TM) SE Runtime Environment
JVM: Java HotSpot(TM) 64-Bit Server VM
Default Encoding: UTF-8
Language: en
Country: US
--></g></svg>