<?xml version="1.0" encoding="UTF-8" standalone="no"?><svg xmlns="http://www.w3.org/2000/svg" xmlns:xlink="http://www.w3.org/1999/xlink" contentScriptType="application/ecmascript" contentStyleType="text/css" height="189px" preserveAspectRatio="none" style="width:472px;height:189px;" version="1.1" viewBox="0 0 472 189" width="472px" zoomAndPan="magnify"><defs><filter height="300%" id="fozsq9l04kwyi" width="300%" x="-1" y="-1"><feGaussianBlur result="blurOut" stdDeviation="2.0"/><feColorMatrix in="blurOut" result="blurOut2" type="matrix" values="0 0 0 0 0 0 0 0 0 0 0 0 0 0 0 0 0 0 .4 0"/><feOffset dx="4.0" dy="4.0" in="blurOut2" result="blurOut3"/><feBlend in="SourceGraphic" in2="blurOut3" mode="normal"/></filter></defs><g><!--MD5=[0a23fe4d889dfa79a5b3efbc10542ce3]
cluster heap--><path d="M73.1307,79.0019 C77.7266,71.1164 83.9041,69.4495 90.5138,76.6873 C96.9392,68.0417 105.2891,67.7336 110.8664,77.6189 C116.8622,68.0517 123.3805,66.9329 130.8074,76.0954 C134.9858,67.0351 144.3971,66.229 149.7878,74.7895 C155.4444,66.4594 161.3161,66.2795 168.2776,73.2084 C173.019,63.8977 181.2907,64.5698 186.2678,72.969 C193.6138,65.1811 200.5283,65.1581 206.1932,74.8818 C211.7886,64.0602 218.941,64.7436 225.7284,73.7048 C230.6961,64.3005 237.9774,64.3664 243.3377,73.3284 C249.3641,65.1062 257.443,65.898 262.4623,74.475 C269.5816,65.4432 275.4878,67.4177 280.6875,76.4153 C285.3953,66.704 294.6635,67.7479 300.1426,75.5589 C306.9316,66.4349 314.5885,68.9695 319.3173,77.7636 C324.9388,67.5016 334.5816,68.6548 339.2266,78.7199 C351.3789,82.94 352.5127,90.5257 342.9688,98.791 C354.6026,103.0022 355.8448,108.9346 347.2435,117.7162 C354.721,125.1122 354.0614,132.702 344.2135,137.436 C354.2138,147.2108 351.0472,154.1154 339.2491,158.8325 C334.3365,169.6248 326.8742,169.2035 319.7178,161.1591 C314.318,170.5339 306.7053,167.7794 302.0529,160.3725 C296.4928,170.8212 289.3324,170.6361 281.8763,162.4225 C275.8838,172.5784 268.6217,173.1414 261.9838,163.0567 C258.7189,171.2309 251.1452,173.0486 245.5067,165.5525 C240.679,175.3979 231.9053,174.2578 226.4793,166.1879 C221.4448,176.0885 212.1717,176.6489 206.5179,166.8143 C200.955,176.3574 192.0227,177.2699 186.4384,166.8357 C180.4213,175.7943 174.1974,173.3186 169.3334,165.6495 C162.3353,174.3817 153.9149,176.1977 147.3102,165.2102 C139.7494,173.7348 132.024,171.4961 128.1657,161.4029 C122.7903,169.7736 115.6259,168.9751 110.2556,161.3971 C104.421,169.4324 94.5957,169.3439 89.7981,160.1648 C82.8971,169.0854 76.3668,167.1882 71.7102,157.9315 C60.9074,153.9824 58.3345,148.1279 65.5034,138.4525 C52.8568,135.102 49.4413,127.191 58.935,117.0467 C52.1815,108.8276 54.9981,99.3853 65.3001,96.4324 C60.0404,87.5546 61.9749,80.5052 73.1307,79.0019 " fill="#FFFFFF" filter="url(#fozsq9l04kwyi)" style="stroke: #000000; stroke-width: 1.5;"/><text fill="#000000" font-family="sans-serif" font-size="14" font-weight="bold" lengthAdjust="spacingAndGlyphs" textLength="39" x="184.5" y="93.9951">heap</text><!--MD5=[959d8e9802fbb9cf7a997c608ece5901]
entity aval--><polygon fill="#FEFECE" filter="url(#fozsq9l04kwyi)" points="221.5,113,231.5,103,329.5,103,329.5,139.2969,319.5,149.2969,221.5,149.2969,221.5,113" style="stroke: #000000; stroke-width: 1.5;"/><line style="stroke: #000000; stroke-width: 1.5;" x1="319.5" x2="329.5" y1="113" y2="103"/><line style="stroke: #000000; stroke-width: 1.5;" x1="221.5" x2="319.5" y1="113" y2="113"/><line style="stroke: #000000; stroke-width: 1.5;" x1="319.5" x2="319.5" y1="113" y2="149.2969"/><text fill="#000000" font-family="sans-serif" font-size="14" lengthAdjust="spacingAndGlyphs" textLength="68" x="236.5" y="135.9951">{ 1, 2, 3 }</text><!--MD5=[57afbd9a3a968bc955952fab4c9d8da6]
entity bval--><polygon fill="#FEFECE" filter="url(#fozsq9l04kwyi)" points="78.5,113,88.5,103,186.5,103,186.5,139.2969,176.5,149.2969,78.5,149.2969,78.5,113" style="stroke: #000000; stroke-width: 1.5;"/><line style="stroke: #000000; stroke-width: 1.5;" x1="176.5" x2="186.5" y1="113" y2="103"/><line style="stroke: #000000; stroke-width: 1.5;" x1="78.5" x2="176.5" y1="113" y2="113"/><line style="stroke: #000000; stroke-width: 1.5;" x1="176.5" x2="176.5" y1="113" y2="149.2969"/><text fill="#000000" font-family="sans-serif" font-size="14" lengthAdjust="spacingAndGlyphs" textLength="68" x="93.5" y="135.9951">{ 4, 5, 6 }</text><!--MD5=[fa488513c37dc7061475119d600d2253]
entity aref--><polygon fill="#FEFECE" filter="url(#fozsq9l04kwyi)" points="100.5,16,110.5,6,210.5,6,210.5,42.2969,200.5,52.2969,100.5,52.2969,100.5,16" style="stroke: #000000; stroke-width: 1.5;"/><line style="stroke: #000000; stroke-width: 1.5;" x1="200.5" x2="210.5" y1="16" y2="6"/><line style="stroke: #000000; stroke-width: 1.5;" x1="100.5" x2="200.5" y1="16" y2="16"/><line style="stroke: #000000; stroke-width: 1.5;" x1="200.5" x2="200.5" y1="16" y2="52.2969"/><text fill="#000000" font-family="sans-serif" font-size="14" lengthAdjust="spacingAndGlyphs" textLength="5" x="115.5" y="38.9951">(</text><text fill="#000000" font-family="sans-serif" font-size="14" font-style="italic" lengthAdjust="spacingAndGlyphs" textLength="60" x="120.5" y="38.9951">referens</text><text fill="#000000" font-family="sans-serif" font-size="14" lengthAdjust="spacingAndGlyphs" textLength="5" x="180.5" y="38.9951">)</text><path d="M6,16.5 L6,41.6328 A0,0 0 0 0 6,41.6328 L65,41.6328 A0,0 0 0 0 65,41.6328 L65,34.5 L100.3706,29 L65,26.5 L65,26.5 L55,16.5 L6,16.5 A0,0 0 0 0 6,16.5 " fill="#FBFB77" filter="url(#fozsq9l04kwyi)" style="stroke: #A80036; stroke-width: 1.0;"/><path d="M55,16.5 L55,26.5 L65,26.5 L55,16.5 " fill="#FBFB77" style="stroke: #A80036; stroke-width: 1.0;"/><text fill="#000000" font-family="sans-serif" font-size="13" lengthAdjust="spacingAndGlyphs" textLength="26" x="12" y="33.5669">int[]</text><text fill="#000000" font-family="sans-serif" font-size="13" font-style="italic" lengthAdjust="spacingAndGlyphs" textLength="8" x="42" y="33.5669">a</text><!--MD5=[34453e2c0c288112de6a33ec6161f20b]
entity bref--><polygon fill="#FEFECE" filter="url(#fozsq9l04kwyi)" points="340.5,16,350.5,6,450.5,6,450.5,42.2969,440.5,52.2969,340.5,52.2969,340.5,16" style="stroke: #000000; stroke-width: 1.5;"/><line style="stroke: #000000; stroke-width: 1.5;" x1="440.5" x2="450.5" y1="16" y2="6"/><line style="stroke: #000000; stroke-width: 1.5;" x1="340.5" x2="440.5" y1="16" y2="16"/><line style="stroke: #000000; stroke-width: 1.5;" x1="440.5" x2="440.5" y1="16" y2="52.2969"/><text fill="#000000" font-family="sans-serif" font-size="14" lengthAdjust="spacingAndGlyphs" textLength="5" x="355.5" y="38.9951">(</text><text fill="#000000" font-family="sans-serif" font-size="14" font-style="italic" lengthAdjust="spacingAndGlyphs" textLength="60" x="360.5" y="38.9951">referens</text><text fill="#000000" font-family="sans-serif" font-size="14" lengthAdjust="spacingAndGlyphs" textLength="5" x="420.5" y="38.9951">)</text><path d="M246,16.5 L246,41.6328 A0,0 0 0 0 246,41.6328 L305,41.6328 A0,0 0 0 0 305,41.6328 L305,34.5 L340.371,29 L305,26.5 L305,26.5 L295,16.5 L246,16.5 A0,0 0 0 0 246,16.5 " fill="#FBFB77" filter="url(#fozsq9l04kwyi)" style="stroke: #A80036; stroke-width: 1.0;"/><path d="M295,16.5 L295,26.5 L305,26.5 L295,16.5 " fill="#FBFB77" style="stroke: #A80036; stroke-width: 1.0;"/><text fill="#000000" font-family="sans-serif" font-size="13" lengthAdjust="spacingAndGlyphs" textLength="26" x="252" y="33.5669">int[]</text><text fill="#000000" font-family="sans-serif" font-size="13" font-style="italic" lengthAdjust="spacingAndGlyphs" textLength="8" x="282" y="33.5669">b</text><!--MD5=[4c6e83c9a98820bf20fc05f63c57f0e2]
link aref to aval--><path d="M193.182,52.043 C197.075,54.623 200.914,57.3 204.5,60 C220.229,71.842 236.518,86.5509 249.52,98.9798 " fill="none" id="aref-to-aval" style="stroke: #A80036; stroke-width: 1.0;"/><polygon fill="#A80036" points="253.446,102.7582,249.7352,93.6351,249.8435,99.291,244.1876,99.3992,253.446,102.7582" style="stroke: #A80036; stroke-width: 1.0;"/><!--MD5=[122698aee8af0e4991e48c6e19eef73a]
link bref to aval--><path d="M367.668,52.034 C349.774,66.2 326.459,84.6572 307.757,99.4634 " fill="none" id="bref-to-aval" style="stroke: #A80036; stroke-width: 1.0;"/><polygon fill="#A80036" points="303.597,102.7567,313.1365,100.3076,307.5176,99.6536,308.1716,94.0347,303.597,102.7567" style="stroke: #A80036; stroke-width: 1.0;"/><!--MD5=[7124d721389c443ae43561e6c20fd3ca]
@startuml
skinparam ranksep 1
node "(<i>referens</i>)"  as aref
note left of aref : int[] <i>a</i>

node "(<i>referens</i>)"  as bref
note left of bref : int[] <i>b</i>

cloud "heap" {
    node "{ 1, 2, 3 }" as aval
    node "{ 4, 5, 6 }" as bval
}

aref - -> aval
bref - -> aval
@enduml

PlantUML version 1.2020.17beta5(Unknown compile time)
(GPL source distribution)
Java Runtime: Java(TM) SE Runtime Environment
JVM: Java HotSpot(TM) 64-Bit Server VM
Default Encoding: UTF-8
Language: en
Country: US
--></g></svg>