<?xml version="1.0" encoding="UTF-8" standalone="no"?><svg xmlns="http://www.w3.org/2000/svg" xmlns:xlink="http://www.w3.org/1999/xlink" contentScriptType="application/ecmascript" contentStyleType="text/css" height="64px" preserveAspectRatio="none" style="width:184px;height:64px;" version="1.1" viewBox="0 0 184 64" width="184px" zoomAndPan="magnify"><defs><filter height="300%" id="f142zji4rgwd3" width="300%" x="-1" y="-1"><feGaussianBlur result="blurOut" stdDeviation="2.0"/><feColorMatrix in="blurOut" result="blurOut2" type="matrix" values="0 0 0 0 0 0 0 0 0 0 0 0 0 0 0 0 0 0 .4 0"/><feOffset dx="4.0" dy="4.0" in="blurOut2" result="blurOut3"/><feBlend in="SourceGraphic" in2="blurOut3" mode="normal"/></filter></defs><g><!--MD5=[8a84cbdc33f63108a9858deee9d65e52]
entity age--><polygon fill="#FEFECE" filter="url(#f142zji4rgwd3)" points="106.5,16,116.5,6,162.5,6,162.5,42.2969,152.5,52.2969,106.5,52.2969,106.5,16" style="stroke: #000000; stroke-width: 1.5;"/><line style="stroke: #000000; stroke-width: 1.5;" x1="152.5" x2="162.5" y1="16" y2="6"/><line style="stroke: #000000; stroke-width: 1.5;" x1="106.5" x2="152.5" y1="16" y2="16"/><line style="stroke: #000000; stroke-width: 1.5;" x1="152.5" x2="152.5" y1="16" y2="52.2969"/><text fill="#000000" font-family="sans-serif" font-size="14" lengthAdjust="spacingAndGlyphs" textLength="16" x="121.5" y="38.9951">42</text><path d="M6,16.5 L6,41.6328 A0,0 0 0 0 6,41.6328 L71,41.6328 A0,0 0 0 0 71,41.6328 L71,34.5 L106.278,29 L71,26.5 L71,26.5 L61,16.5 L6,16.5 A0,0 0 0 0 6,16.5 " fill="#FBFB77" filter="url(#f142zji4rgwd3)" style="stroke: #A80036; stroke-width: 1.0;"/><path d="M61,16.5 L61,26.5 L71,26.5 L61,16.5 " fill="#FBFB77" style="stroke: #A80036; stroke-width: 1.0;"/><text fill="#000000" font-family="sans-serif" font-size="13" lengthAdjust="spacingAndGlyphs" textLength="16" x="12" y="33.5669">int</text><text fill="#000000" font-family="sans-serif" font-size="13" font-style="italic" lengthAdjust="spacingAndGlyphs" textLength="24" x="32" y="33.5669">age</text><!--MD5=[e6ecf32f5a0cb89cba90eeb9b91e346d]
@startuml
node 42 as age
note left of age : int <i>age</i>
@enduml

PlantUML version 1.2020.17beta5(Unknown compile time)
(GPL source distribution)
Java Runtime: Java(TM) SE Runtime Environment
JVM: Java HotSpot(TM) 64-Bit Server VM
Default Encoding: UTF-8
Language: en
Country: US
--></g></svg>