<?xml version="1.0" encoding="UTF-8" standalone="no"?><svg xmlns="http://www.w3.org/2000/svg" xmlns:xlink="http://www.w3.org/1999/xlink" contentScriptType="application/ecmascript" contentStyleType="text/css" height="123px" preserveAspectRatio="none" style="width:449px;height:123px;" version="1.1" viewBox="0 0 449 123" width="449px" zoomAndPan="magnify"><defs><filter height="300%" id="f1196pc89dqe3u" width="300%" x="-1" y="-1"><feGaussianBlur result="blurOut" stdDeviation="2.0"/><feColorMatrix in="blurOut" result="blurOut2" type="matrix" values="0 0 0 0 0 0 0 0 0 0 0 0 0 0 0 0 0 0 .4 0"/><feOffset dx="4.0" dy="4.0" in="blurOut2" result="blurOut3"/><feBlend in="SourceGraphic" in2="blurOut3" mode="normal"/></filter></defs><g><!--MD5=[0a23fe4d889dfa79a5b3efbc10542ce3]
cluster heap--><path d="M287.3527,15.9926 C290.1937,9.7759 293.9539,9.69 298.0638,14.7918 C302.0691,9.0178 306.3928,9.111 310.2848,14.9114 C313.6556,9.2804 317.0548,9.8251 321.1594,14.1065 C323.9152,8.1695 329.6783,7.9103 333.3511,13.1019 C337.5789,7.2781 341.4851,6 346.2832,12.5036 C349.8339,7.192 354.6169,6.7744 357.5779,13.0769 C361.1023,8.6045 365.8516,7.8346 368.9873,13.5137 C372.6196,7.4254 376.175,7.4374 380.0539,13.285 C384.9465,8.8605 388.8137,8.708 391.4903,15.537 C394.8505,9.8831 400.0008,8.8512 403.4898,15.4104 C406.388,9.9483 411.0634,10.6076 414.3804,14.9449 C418.7752,9.3662 423.6942,9.8204 426.957,16.1413 C434.509,18.2916 434.9431,24.5823 429.1527,29.0093 C436.6627,33.057 435.9232,38.079 430.045,42.9817 C437.4378,46.604 436.8059,50.5455 431.481,55.6136 C437.6516,60.9885 436.8807,67.392 428.7911,70.1233 C435.0474,75.3519 435.5887,80.0496 428.0516,84.5723 C435.0699,88.3105 433.4541,94.8267 427.5578,98.0934 C424.6719,104.3088 419.586,104.108 416.006,98.7884 C412.6723,105.275 408.6263,104.584 404.0235,100.1854 C401.1241,106.7927 397.1715,106.9829 392.624,101.7755 C388.7682,107.9724 384.8191,109.0541 379.5121,103.3781 C376.5249,108.5226 373.3043,108.6718 369.1701,104.676 C365.6902,110.2484 361.9952,110.6814 357.5764,105.7083 C353.3251,111.5351 347.1958,110.6084 344.4427,104.1116 C340.3673,109.206 335.9912,108.4801 333.0106,102.9353 C328.2954,107.4605 324.0047,107.5185 321.3545,100.7954 C317.4249,105.3941 312.9351,104.6835 310.6046,99.1061 C306.9361,104.8187 301.4232,104.137 298.6293,98.2065 C295.3861,104.0223 290.0246,103.701 287.3408,97.6733 C279.4592,94.9624 279.4366,90.2216 283.9446,84.352 C275.8563,81.6767 274.1651,74.8191 280.8644,69.148 C275.2332,66.739 274.3753,60.9493 279.4917,57.2955 C273.9738,51.6321 275.2091,47.2421 281.8828,43.7272 C276.4362,38.1106 276.7132,32.2391 284.9912,29.6539 C278.4839,23.9095 279.3768,19.2334 287.3527,15.9926 " fill="#FFFFFF" filter="url(#f1196pc89dqe3u)" style="stroke: #000000; stroke-width: 1.5;"/><text fill="#000000" font-family="sans-serif" font-size="14" font-weight="bold" lengthAdjust="spacingAndGlyphs" textLength="39" x="336.5" y="33.0703">heap</text><!--MD5=[6297f62af9aa2dfe9d9f795e0d33ae61]
entity value--><polygon fill="#FEFECE" filter="url(#f1196pc89dqe3u)" points="294,52.0752,304,42.0752,418,42.0752,418,78.3721,408,88.3721,294,88.3721,294,52.0752" style="stroke: #000000; stroke-width: 1.5;"/><line style="stroke: #000000; stroke-width: 1.5;" x1="408" x2="418" y1="52.0752" y2="42.0752"/><line style="stroke: #000000; stroke-width: 1.5;" x1="294" x2="408" y1="52.0752" y2="52.0752"/><line style="stroke: #000000; stroke-width: 1.5;" x1="408" x2="408" y1="52.0752" y2="88.3721"/><text fill="#000000" font-family="sans-serif" font-size="14" lengthAdjust="spacingAndGlyphs" textLength="84" x="309" y="75.0703">{ 1, 2, 3, 4 }</text><!--MD5=[6a66ad4cd3e5cd24129b6fd8af5c5a1e]
entity ref--><polygon fill="#FEFECE" filter="url(#f1196pc89dqe3u)" points="149,52.0752,159,42.0752,259,42.0752,259,78.3721,249,88.3721,149,88.3721,149,52.0752" style="stroke: #000000; stroke-width: 1.5;"/><line style="stroke: #000000; stroke-width: 1.5;" x1="249" x2="259" y1="52.0752" y2="42.0752"/><line style="stroke: #000000; stroke-width: 1.5;" x1="149" x2="249" y1="52.0752" y2="52.0752"/><line style="stroke: #000000; stroke-width: 1.5;" x1="249" x2="249" y1="52.0752" y2="88.3721"/><text fill="#000000" font-family="sans-serif" font-size="14" lengthAdjust="spacingAndGlyphs" textLength="5" x="164" y="75.0703">(</text><text fill="#000000" font-family="sans-serif" font-size="14" font-style="italic" lengthAdjust="spacingAndGlyphs" textLength="60" x="169" y="75.0703">referens</text><text fill="#000000" font-family="sans-serif" font-size="14" lengthAdjust="spacingAndGlyphs" textLength="5" x="229" y="75.0703">)</text><path d="M6,52.5752 L6,77.708 A0,0 0 0 0 6,77.708 L114,77.708 A0,0 0 0 0 114,77.708 L114,70.5752 L148.977,65.0752 L114,62.5752 L114,62.5752 L104,52.5752 L6,52.5752 A0,0 0 0 0 6,52.5752 " fill="#FBFB77" filter="url(#f1196pc89dqe3u)" style="stroke: #A80036; stroke-width: 1.0;"/><path d="M104,52.5752 L104,62.5752 L114,62.5752 L104,52.5752 " fill="#FBFB77" style="stroke: #A80036; stroke-width: 1.0;"/><text fill="#000000" font-family="sans-serif" font-size="13" lengthAdjust="spacingAndGlyphs" textLength="26" x="12" y="69.6421">int[]</text><text fill="#000000" font-family="sans-serif" font-size="13" font-style="italic" lengthAdjust="spacingAndGlyphs" textLength="57" x="42" y="69.6421">numbers</text><!--MD5=[64782fbe785ef57fe93a253839951df7]
link ref to value--><path d="M259.219,65.0752 C269.091,65.0752 278.964,65.0752 288.837,65.0752 " fill="none" id="ref-to-value" style="stroke: #A80036; stroke-width: 1.0;"/><polygon fill="#A80036" points="294,65.0752,285,61.0752,289,65.0752,285,69.0752,294,65.0752" style="stroke: #A80036; stroke-width: 1.0;"/><!--MD5=[40380fcb1a89fc1a23f1031cc1b21751]
@startuml
node "(<i>referens</i>)"  as ref

note left of ref : int[] <i>numbers</i>

cloud "heap" {
    node "{ 1, 2, 3, 4 }" as value
}

ref -> value
@enduml

PlantUML version 1.2020.17beta5(Unknown compile time)
(GPL source distribution)
Java Runtime: Java(TM) SE Runtime Environment
JVM: Java HotSpot(TM) 64-Bit Server VM
Default Encoding: UTF-8
Language: en
Country: US
--></g></svg>