<?xml version="1.0" encoding="UTF-8" standalone="no"?><svg xmlns="http://www.w3.org/2000/svg" xmlns:xlink="http://www.w3.org/1999/xlink" contentScriptType="application/ecmascript" contentStyleType="text/css" height="189px" preserveAspectRatio="none" style="width:472px;height:189px;" version="1.1" viewBox="0 0 472 189" width="472px" zoomAndPan="magnify"><defs><filter height="300%" id="fk86tj5o3tti1" width="300%" x="-1" y="-1"><feGaussianBlur result="blurOut" stdDeviation="2.0"/><feColorMatrix in="blurOut" result="blurOut2" type="matrix" values="0 0 0 0 0 0 0 0 0 0 0 0 0 0 0 0 0 0 .4 0"/><feOffset dx="4.0" dy="4.0" in="blurOut2" result="blurOut3"/><feBlend in="SourceGraphic" in2="blurOut3" mode="normal"/></filter></defs><g><!--MD5=[0a23fe4d889dfa79a5b3efbc10542ce3]
cluster heap--><path d="M144.1307,79.0019 C148.7266,71.1164 154.9041,69.4495 161.5138,76.6873 C167.9392,68.0417 176.2891,67.7336 181.8664,77.6189 C187.8622,68.0517 194.3805,66.9329 201.8074,76.0954 C205.9858,67.0351 215.3971,66.229 220.7878,74.7895 C226.4444,66.4594 232.3161,66.2795 239.2776,73.2084 C244.019,63.8977 252.2907,64.5698 257.2678,72.969 C264.6138,65.1811 271.5283,65.1581 277.1932,74.8818 C282.7886,64.0602 289.941,64.7436 296.7284,73.7048 C301.6961,64.3005 308.9774,64.3664 314.3377,73.3284 C320.3641,65.1062 328.443,65.898 333.4623,74.475 C340.5816,65.4432 346.4878,67.4177 351.6875,76.4153 C356.3953,66.704 365.6635,67.7479 371.1426,75.5589 C377.9316,66.4349 385.5885,68.9695 390.3173,77.7636 C395.9388,67.5016 405.5816,68.6548 410.2266,78.7199 C422.3789,82.94 423.5127,90.5257 413.9688,98.791 C425.6026,103.0022 426.8448,108.9346 418.2435,117.7162 C425.721,125.1122 425.0614,132.702 415.2135,137.436 C425.2138,147.2108 422.0472,154.1154 410.2491,158.8325 C405.3365,169.6248 397.8742,169.2035 390.7178,161.1591 C385.318,170.5339 377.7053,167.7794 373.0529,160.3725 C367.4928,170.8212 360.3324,170.6361 352.8763,162.4225 C346.8838,172.5784 339.6217,173.1414 332.9838,163.0567 C329.7189,171.2309 322.1452,173.0486 316.5067,165.5525 C311.679,175.3979 302.9053,174.2578 297.4793,166.1879 C292.4448,176.0885 283.1717,176.6489 277.5179,166.8143 C271.955,176.3574 263.0227,177.2699 257.4384,166.8357 C251.4213,175.7943 245.1974,173.3186 240.3334,165.6495 C233.3353,174.3817 224.9149,176.1977 218.3102,165.2102 C210.7494,173.7348 203.024,171.4961 199.1657,161.4029 C193.7903,169.7736 186.6259,168.9751 181.2556,161.3971 C175.421,169.4324 165.5957,169.3439 160.7981,160.1648 C153.8971,169.0854 147.3668,167.1882 142.7102,157.9315 C131.9074,153.9824 129.3345,148.1279 136.5034,138.4525 C123.8568,135.102 120.4413,127.191 129.935,117.0467 C123.1815,108.8276 125.9981,99.3853 136.3001,96.4324 C131.0404,87.5546 132.9749,80.5052 144.1307,79.0019 " fill="#FFFFFF" filter="url(#fk86tj5o3tti1)" style="stroke: #000000; stroke-width: 1.5;"/><text fill="#000000" font-family="sans-serif" font-size="14" font-weight="bold" lengthAdjust="spacingAndGlyphs" textLength="39" x="255.5" y="93.9951">heap</text><!--MD5=[959d8e9802fbb9cf7a997c608ece5901]
entity aval--><polygon fill="#FEFECE" filter="url(#fk86tj5o3tti1)" points="149.5,113,159.5,103,257.5,103,257.5,139.2969,247.5,149.2969,149.5,149.2969,149.5,113" style="stroke: #000000; stroke-width: 1.5;"/><line style="stroke: #000000; stroke-width: 1.5;" x1="247.5" x2="257.5" y1="113" y2="103"/><line style="stroke: #000000; stroke-width: 1.5;" x1="149.5" x2="247.5" y1="113" y2="113"/><line style="stroke: #000000; stroke-width: 1.5;" x1="247.5" x2="247.5" y1="113" y2="149.2969"/><text fill="#000000" font-family="sans-serif" font-size="14" lengthAdjust="spacingAndGlyphs" textLength="68" x="164.5" y="135.9951">{ 1, 2, 3 }</text><!--MD5=[57afbd9a3a968bc955952fab4c9d8da6]
entity bval--><polygon fill="#FEFECE" filter="url(#fk86tj5o3tti1)" points="292.5,113,302.5,103,400.5,103,400.5,139.2969,390.5,149.2969,292.5,149.2969,292.5,113" style="stroke: #000000; stroke-width: 1.5;"/><line style="stroke: #000000; stroke-width: 1.5;" x1="390.5" x2="400.5" y1="113" y2="103"/><line style="stroke: #000000; stroke-width: 1.5;" x1="292.5" x2="390.5" y1="113" y2="113"/><line style="stroke: #000000; stroke-width: 1.5;" x1="390.5" x2="390.5" y1="113" y2="149.2969"/><text fill="#000000" font-family="sans-serif" font-size="14" lengthAdjust="spacingAndGlyphs" textLength="68" x="307.5" y="135.9951">{ 4, 5, 6 }</text><!--MD5=[fa488513c37dc7061475119d600d2253]
entity aref--><polygon fill="#FEFECE" filter="url(#fk86tj5o3tti1)" points="100.5,16,110.5,6,210.5,6,210.5,42.2969,200.5,52.2969,100.5,52.2969,100.5,16" style="stroke: #000000; stroke-width: 1.5;"/><line style="stroke: #000000; stroke-width: 1.5;" x1="200.5" x2="210.5" y1="16" y2="6"/><line style="stroke: #000000; stroke-width: 1.5;" x1="100.5" x2="200.5" y1="16" y2="16"/><line style="stroke: #000000; stroke-width: 1.5;" x1="200.5" x2="200.5" y1="16" y2="52.2969"/><text fill="#000000" font-family="sans-serif" font-size="14" lengthAdjust="spacingAndGlyphs" textLength="5" x="115.5" y="38.9951">(</text><text fill="#000000" font-family="sans-serif" font-size="14" font-style="italic" lengthAdjust="spacingAndGlyphs" textLength="60" x="120.5" y="38.9951">referens</text><text fill="#000000" font-family="sans-serif" font-size="14" lengthAdjust="spacingAndGlyphs" textLength="5" x="180.5" y="38.9951">)</text><path d="M6,16.5 L6,41.6328 A0,0 0 0 0 6,41.6328 L65,41.6328 A0,0 0 0 0 65,41.6328 L65,34.5 L100.3706,29 L65,26.5 L65,26.5 L55,16.5 L6,16.5 A0,0 0 0 0 6,16.5 " fill="#FBFB77" filter="url(#fk86tj5o3tti1)" style="stroke: #A80036; stroke-width: 1.0;"/><path d="M55,16.5 L55,26.5 L65,26.5 L55,16.5 " fill="#FBFB77" style="stroke: #A80036; stroke-width: 1.0;"/><text fill="#000000" font-family="sans-serif" font-size="13" lengthAdjust="spacingAndGlyphs" textLength="26" x="12" y="33.5669">int[]</text><text fill="#000000" font-family="sans-serif" font-size="13" font-style="italic" lengthAdjust="spacingAndGlyphs" textLength="8" x="42" y="33.5669">a</text><!--MD5=[34453e2c0c288112de6a33ec6161f20b]
entity bref--><polygon fill="#FEFECE" filter="url(#fk86tj5o3tti1)" points="340.5,16,350.5,6,450.5,6,450.5,42.2969,440.5,52.2969,340.5,52.2969,340.5,16" style="stroke: #000000; stroke-width: 1.5;"/><line style="stroke: #000000; stroke-width: 1.5;" x1="440.5" x2="450.5" y1="16" y2="6"/><line style="stroke: #000000; stroke-width: 1.5;" x1="340.5" x2="440.5" y1="16" y2="16"/><line style="stroke: #000000; stroke-width: 1.5;" x1="440.5" x2="440.5" y1="16" y2="52.2969"/><text fill="#000000" font-family="sans-serif" font-size="14" lengthAdjust="spacingAndGlyphs" textLength="5" x="355.5" y="38.9951">(</text><text fill="#000000" font-family="sans-serif" font-size="14" font-style="italic" lengthAdjust="spacingAndGlyphs" textLength="60" x="360.5" y="38.9951">referens</text><text fill="#000000" font-family="sans-serif" font-size="14" lengthAdjust="spacingAndGlyphs" textLength="5" x="420.5" y="38.9951">)</text><path d="M246,16.5 L246,41.6328 A0,0 0 0 0 246,41.6328 L305,41.6328 A0,0 0 0 0 305,41.6328 L305,34.5 L340.371,29 L305,26.5 L305,26.5 L295,16.5 L246,16.5 A0,0 0 0 0 246,16.5 " fill="#FBFB77" filter="url(#fk86tj5o3tti1)" style="stroke: #A80036; stroke-width: 1.0;"/><path d="M295,16.5 L295,26.5 L305,26.5 L295,16.5 " fill="#FBFB77" style="stroke: #A80036; stroke-width: 1.0;"/><text fill="#000000" font-family="sans-serif" font-size="13" lengthAdjust="spacingAndGlyphs" textLength="26" x="252" y="33.5669">int[]</text><text fill="#000000" font-family="sans-serif" font-size="13" font-style="italic" lengthAdjust="spacingAndGlyphs" textLength="8" x="282" y="33.5669">b</text><!--MD5=[4c6e83c9a98820bf20fc05f63c57f0e2]
link aref to aval--><path d="M166.633,52.034 C173.55,65.724 182.492,83.4213 189.837,97.9583 " fill="none" id="aref-to-aval" style="stroke: #A80036; stroke-width: 1.0;"/><polygon fill="#A80036" points="192.261,102.7567,191.7726,92.92,190.0062,98.294,184.6322,96.5276,192.261,102.7567" style="stroke: #A80036; stroke-width: 1.0;"/><!--MD5=[e43a80ca5caab9820df74c70898b38d8]
link bref to bval--><path d="M384.135,52.034 C377.074,65.724 367.946,83.4213 360.448,97.9583 " fill="none" id="bref-to-bval" style="stroke: #A80036; stroke-width: 1.0;"/><polygon fill="#A80036" points="357.973,102.7567,365.6541,96.5922,360.2654,98.3132,358.5444,92.9244,357.973,102.7567" style="stroke: #A80036; stroke-width: 1.0;"/><!--MD5=[6a80cc91c8b20b1a4fa7d73a5451a0d7]
@startuml
skinparam ranksep 1
node "(<i>referens</i>)"  as aref
note left of aref : int[] <i>a</i>

node "(<i>referens</i>)"  as bref
note left of bref : int[] <i>b</i>

cloud "heap" {
    node "{ 1, 2, 3 }" as aval
    node "{ 4, 5, 6 }" as bval
}

aref - -> aval
bref - -> bval
@enduml

PlantUML version 1.2020.17beta5(Unknown compile time)
(GPL source distribution)
Java Runtime: Java(TM) SE Runtime Environment
JVM: Java HotSpot(TM) 64-Bit Server VM
Default Encoding: UTF-8
Language: en
Country: US
--></g></svg>